<svg width="532" height="532" viewBox="0 0 532 532" fill="none" xmlns="http://www.w3.org/2000/svg">
<g clip-path="url(#clip0_20_1131)">
<path fill-rule="evenodd" clip-rule="evenodd" d="M515.269 513.084C515.269 513.084 579.739 404.041 455.574 378.572C331.408 353.102 337.775 354.694 313.897 303.754C290.019 252.814 196.099 201.079 83.8726 265.549C-28.3538 330.02 9.05428 491.097 13.0342 511.792L515.269 513.085V513.084Z" fill="#E5F8FF"/>
<path d="M532 513.084H0V532H532V513.084Z" fill="#E5F8FF"/>
<path d="M366.252 99.0078H135.196C125.317 99.0078 117.308 104.266 117.308 110.753V293.583C117.308 300.069 125.317 305.328 135.196 305.328H366.252C376.132 305.328 384.141 300.069 384.141 293.583V110.753C384.141 104.266 376.132 99.0078 366.252 99.0078Z" fill="white" stroke="#464041" stroke-width="1.92" stroke-miterlimit="2.61313"/>
<path d="M345.939 77.6853H114.883C105.003 77.6853 96.9941 82.9437 96.9941 89.4303V272.26C96.9941 278.747 105.003 284.005 114.883 284.005H345.939C355.818 284.005 363.827 278.747 363.827 272.26V89.4303C363.827 82.9437 355.818 77.6853 345.939 77.6853Z" fill="white" stroke="#464041" stroke-width="1.60032" stroke-miterlimit="2.61313"/>
<path d="M184.306 93.6853L184.306 61.6857C184.306 54.9529 177.598 49.4949 169.322 49.4949C161.047 49.4949 154.338 54.9529 154.338 61.6857L154.338 93.6853C154.338 100.418 161.047 105.876 169.322 105.876C177.598 105.876 184.306 100.418 184.306 93.6853Z" fill="white" stroke="#464041" stroke-width="3.1116" stroke-miterlimit="2.61313"/>
<path d="M306.484 93.6853L306.484 61.6857C306.484 54.9529 299.776 49.4949 291.5 49.4949C283.225 49.4949 276.516 54.9529 276.516 61.6857L276.516 93.6853C276.516 100.418 283.225 105.876 291.5 105.876C299.776 105.876 306.484 100.418 306.484 93.6853Z" fill="white" stroke="#464041" stroke-width="3.1116" stroke-miterlimit="2.61313"/>
<path d="M148.864 129.122H119.761V158.225H148.864V129.122Z" fill="#00B0F5"/>
<path d="M196.914 129.122H167.81V158.225H196.914V129.122Z" fill="#00B0F5"/>
<path d="M244.962 129.122H215.859V158.225H244.962V129.122Z" fill="#00B0F5"/>
<path d="M293.012 129.122H263.908V158.225H293.012V129.122Z" fill="#00B0F5"/>
<path d="M341.061 129.122H311.958V158.225H341.061V129.122Z" fill="#00B0F5"/>
<path d="M148.864 180.845H119.761V209.949H148.864V180.845Z" fill="#00B0F5"/>
<path d="M196.914 180.845H167.81V209.949H196.914V180.845Z" fill="#00B0F5"/>
<path d="M244.962 180.845H215.859V209.949H244.962V180.845Z" fill="#00B0F5"/>
<path d="M293.012 180.845H263.908V209.949H293.012V180.845Z" fill="#00B0F5"/>
<path d="M341.061 180.845H311.958V209.949H341.061V180.845Z" fill="#00B0F5"/>
<path d="M148.864 232.569H119.761V261.672H148.864V232.569Z" fill="#00B0F5"/>
<path d="M196.914 232.569H167.81V261.672H196.914V232.569Z" fill="#00B0F5"/>
<path d="M244.962 232.569H215.859V261.672H244.962V232.569Z" fill="#00B0F5"/>
<path d="M293.012 232.569H263.908V261.672H293.012V232.569Z" fill="#00B0F5"/>
<path d="M341.061 232.569H311.958V261.672H341.061V232.569Z" fill="#00B0F5"/>
<path fill-rule="evenodd" clip-rule="evenodd" d="M384.348 255.12C384.325 255.876 390.112 271.626 390.887 273.952C393.258 281.066 402.428 260.536 403.91 257.969C405.883 252.641 411.21 252.049 411.21 252.049L410.618 271.584C410.618 271.584 401.542 286.777 394.241 293.288C382.82 303.474 379.019 259.502 377.672 258.507C376.375 257.533 374.876 256.513 373.166 255.766C371.782 255.163 370.344 254.965 369.061 254.181C363.938 251.053 365.935 243.102 367.932 243.102C369.626 243.102 370.206 248.072 373.21 248.943C375.115 249.495 378.508 248.726 377.392 245.995C376.078 242.779 384.678 244.695 384.349 255.12H384.348Z" fill="#FBFBFB"/>
<path d="M383.58 253.619C383.561 254.241 386.488 262.393 388.578 268.216C389.516 270.829 390.285 272.971 390.536 273.726C391.079 275.355 391.947 275.815 393.014 275.46C396.235 274.386 401.288 264.274 403.783 259.279L403.782 259.279C404.354 258.134 404.789 257.263 405.034 256.839L405.062 256.78C406.732 252.273 410.74 251.091 412.066 250.818L411.455 270.986C410.714 272.216 401.598 287.245 394.202 293.842C391.679 296.091 389.54 295.657 387.723 293.62C383.014 288.34 380.287 272.838 378.704 263.843C378.021 259.964 377.546 257.263 377.096 256.923L377.097 256.922C376.404 256.402 375.655 255.868 374.845 255.36C374.032 254.851 373.164 254.373 372.242 253.97C371.632 253.704 371.027 253.514 370.428 253.326C369.564 253.055 368.709 252.786 367.932 252.312C365.51 250.833 364.671 248.267 364.671 245.963C364.671 245.169 364.77 244.408 364.937 243.735C365.103 243.07 365.334 242.491 365.601 242.053C365.906 241.555 366.237 241.254 366.539 241.254C367.123 241.254 367.644 242.229 368.257 243.378C369.113 244.981 370.129 246.883 372.034 247.435C373.043 247.728 374.422 247.694 375.481 247.262C375.861 247.107 376.203 246.901 376.478 246.641C376.766 246.369 376.983 246.038 377.097 245.646C377.247 245.128 377.214 244.516 376.924 243.806H376.923C376.766 243.422 376.773 243.156 376.898 243.009C377.043 242.836 377.366 242.776 377.793 242.838C378.297 242.912 378.915 243.16 379.558 243.598C381.57 244.97 383.754 248.151 383.581 253.617V253.619L383.58 253.619ZM389.284 267.964C387.214 262.198 384.317 254.128 384.33 253.64C384.513 247.859 382.153 244.46 379.981 242.978C379.239 242.472 378.509 242.183 377.898 242.095C377.209 241.994 376.644 242.146 376.324 242.524C376.02 242.884 375.953 243.415 376.228 244.088L376.227 244.089C376.449 244.632 376.481 245.079 376.376 245.438C376.302 245.693 376.158 245.912 375.964 246.095C375.756 246.291 375.493 246.449 375.198 246.569C374.293 246.939 373.11 246.967 372.243 246.715C370.641 246.251 369.706 244.501 368.918 243.025C368.189 241.66 367.571 240.502 366.539 240.502C365.957 240.502 365.403 240.938 364.96 241.662C364.654 242.165 364.391 242.816 364.207 243.556C364.025 244.288 363.918 245.111 363.918 245.963C363.918 248.489 364.85 251.31 367.541 252.953C368.397 253.476 369.295 253.758 370.204 254.043C370.787 254.226 371.376 254.411 371.942 254.658C372.834 255.048 373.668 255.507 374.448 255.995C375.229 256.485 375.964 257.009 376.647 257.522L376.649 257.523C376.854 257.674 377.309 260.259 377.963 263.971C379.559 273.044 382.31 288.681 387.161 294.119C389.283 296.498 391.775 297.013 394.701 294.403C402.488 287.458 412.121 271.334 412.149 271.287L412.201 271.105L412.83 250.38L412.843 249.944L412.409 249.997C412.393 249.999 406.552 250.648 404.368 256.49C404.122 256.922 403.684 257.799 403.112 258.943H403.11C400.661 263.846 395.701 273.773 392.779 274.748C392.155 274.956 391.623 274.615 391.248 273.49C390.989 272.712 390.221 270.572 389.284 267.962L389.284 267.964Z" fill="#201F1F"/>
<path d="M491.351 492.311H480.357V500.142H491.351V492.311Z" fill="#FBFBFB"/>
<path d="M491.35 500.585H480.357H479.914V500.142V492.311V491.869H480.357H491.35H491.793V492.311V500.142V500.585H491.35ZM480.799 499.7H490.908V492.754H480.799V499.7Z" fill="#201F1F"/>
<path d="M425.79 492.826H414.796V500.657H425.79V492.826Z" fill="#FBFBFB"/>
<path d="M425.79 501.1H414.796H414.354V500.657V492.826V492.384H414.796H425.79H426.232V492.826V500.657V501.1H425.79ZM415.239 500.215H425.347V493.268H415.239V500.215Z" fill="#201F1F"/>
<path fill-rule="evenodd" clip-rule="evenodd" d="M413.049 494.146L416.145 314.551H470.112L492.946 494.146H479.6L442.687 351.267L427.3 494.146H413.049Z" fill="#201F1F"/>
<path fill-rule="evenodd" clip-rule="evenodd" d="M492.533 490.899L492.945 494.146H479.6L478.762 490.899H492.533Z" fill="#201F1F"/>
<path fill-rule="evenodd" clip-rule="evenodd" d="M435.544 181.194C436.65 179.836 438.335 178.969 440.223 178.969C442.693 178.969 444.817 180.455 445.749 182.582C446.293 182.324 446.902 182.179 447.545 182.179C448.922 182.179 450.144 182.844 450.907 183.869C451.301 183.788 451.709 183.745 452.126 183.745C455.457 183.745 458.157 186.445 458.157 189.775C458.157 189.961 458.147 190.145 458.131 190.327C460.794 190.952 462.777 193.343 462.777 196.197C462.777 198.464 461.525 200.439 459.675 201.468C460.801 202.357 461.524 203.735 461.524 205.281C461.524 207.857 459.517 209.964 456.981 210.126C457.281 210.703 457.451 211.359 457.451 212.055C457.451 214.368 455.575 216.244 453.262 216.244C452.407 216.244 451.611 215.988 450.948 215.548C450.884 217.418 449.717 218.907 448.289 218.907C448.023 218.907 447.766 218.855 447.523 218.758C446.824 220.366 445.221 221.491 443.356 221.491C441.355 221.491 439.656 220.197 439.051 218.399C438.234 219.603 436.854 220.394 435.29 220.394C433.024 220.394 431.146 218.736 430.804 216.566C430.436 216.662 430.05 216.713 429.651 216.713C427.143 216.713 425.11 214.68 425.11 212.172C425.11 211.848 425.144 211.532 425.208 211.228C423.796 210.458 422.839 208.96 422.839 207.238C422.839 206.097 423.259 205.054 423.955 204.256C422.374 203.546 421.273 201.957 421.273 200.111C421.273 198.575 422.035 197.217 423.203 196.395C420.812 195.323 419.08 192.94 420.646 188.365C422.802 182.066 431.124 181.195 435.545 181.193L435.544 181.194Z" fill="#192832"/>
<path fill-rule="evenodd" clip-rule="evenodd" d="M454.706 230.4V210.58C465.239 208.707 458.206 195.822 455.347 203.359V205.069V194.452C455.347 188.34 435.217 192.848 427.343 192.848V218.524C427.343 218.524 427.263 226.628 437.052 222.777V230.9L454.705 230.4L454.706 230.4Z" fill="#FBFBFB"/>
<path d="M454.263 232.563V210.58V210.21L454.63 210.145C457.87 209.569 459.331 207.914 459.737 206.194C460.031 204.952 459.789 203.675 459.275 202.747C458.802 201.893 458.114 201.352 457.451 201.473C456.882 201.577 456.288 202.164 455.79 203.438V205.069H454.905V203.359V194.452C454.905 192.323 451.807 191.689 447.625 191.689C444.096 191.689 439.836 192.156 435.931 192.585C432.814 192.927 429.919 193.244 427.787 193.285V218.524C427.787 218.545 427.712 225.977 436.893 222.365L437.496 222.128V222.776V233.038L454.264 232.563H454.263ZM455.148 210.945V232.992V233.42L454.718 233.432L437.065 233.932L436.61 233.945V233.492V223.414C426.822 226.935 426.901 218.549 426.901 218.524V192.848V192.405H427.343C429.482 192.405 432.533 192.07 435.836 191.708C439.774 191.276 444.067 190.804 447.624 190.804C452.315 190.804 455.789 191.642 455.789 194.452V201.613C456.254 201.018 456.771 200.701 457.291 200.606C458.361 200.41 459.393 201.142 460.044 202.319C460.654 203.42 460.943 204.931 460.597 206.395C460.133 208.354 458.559 210.233 455.147 210.945H455.148Z" fill="#201F1F"/>
<path fill-rule="evenodd" clip-rule="evenodd" d="M446.377 185.495C446.377 185.495 430.744 182.197 427.463 189.824C424.181 197.451 433.879 197.766 437.048 197.176C445.995 195.51 446.87 192.158 446.377 185.496V185.495Z" fill="#192832"/>
<path fill-rule="evenodd" clip-rule="evenodd" d="M472.512 321.171C472.512 321.171 466.102 311.992 472.751 266.315L476.509 275.277L496.457 264.58L481.815 239.564C480.415 237.172 480.932 237.273 478.377 236.285L455.148 227.275C453.589 229.269 449.882 230.614 445.809 230.614C441.736 230.614 438.164 229.235 436.61 227.235L415.033 233.017C412.24 233.764 412.911 233.482 411.634 236.055L394.767 270.001L412.261 277.585L414.426 265.953C414.426 265.953 413.269 313.365 415.004 321.171H472.512Z" fill="#00B0F5"/>
<path fill-rule="evenodd" clip-rule="evenodd" d="M415.388 263.298C415.386 263.301 414.127 264.473 414.426 265.953C414.038 264.027 414.517 262.69 414.52 262.687L415.388 263.298Z" fill="#00B0F5"/>
<path fill-rule="evenodd" clip-rule="evenodd" d="M475.474 259.321C475.465 259.333 471.816 264.085 472.752 266.314C471.588 263.54 474.587 258.736 474.597 258.722L475.474 259.32L475.474 259.321Z" fill="#00B0F5"/>
<path fill-rule="evenodd" clip-rule="evenodd" d="M470.433 313.4C470.213 311.807 470.024 309.919 469.898 307.688C469.506 307.62 469.104 307.58 468.687 307.58C467.18 307.58 465.866 308.09 464.499 308.654C463.939 308.885 462.949 309.326 462.34 309.326C461.73 309.326 460.741 308.885 460.181 308.654C458.814 308.09 457.5 307.58 455.993 307.58C454.485 307.58 453.172 308.09 451.805 308.654C451.244 308.885 450.255 309.326 449.646 309.326C449.036 309.326 448.046 308.885 447.486 308.654C446.119 308.09 444.806 307.58 443.298 307.58C441.791 307.58 440.477 308.09 439.11 308.654C438.55 308.885 437.56 309.326 436.951 309.326C436.341 309.326 435.352 308.885 434.792 308.654C433.425 308.09 432.111 307.58 430.604 307.58C429.096 307.58 427.782 308.09 426.416 308.654C425.855 308.885 424.865 309.326 424.256 309.326C423.647 309.326 422.657 308.885 422.097 308.654C420.73 308.09 419.417 307.58 417.909 307.58C416.566 307.58 415.377 307.984 414.167 308.471C414.213 310.511 414.273 312.414 414.35 314.114C414.817 313.951 415.28 313.765 415.75 313.571C416.31 313.34 417.3 312.899 417.909 312.899C418.519 312.899 419.508 313.34 420.068 313.571C421.435 314.135 422.749 314.645 424.256 314.645C425.764 314.645 427.078 314.135 428.444 313.572C429.005 313.34 429.994 312.9 430.604 312.9C431.213 312.9 432.203 313.34 432.763 313.572C434.13 314.135 435.443 314.645 436.951 314.645C438.459 314.645 439.772 314.135 441.139 313.572C441.7 313.34 442.689 312.9 443.298 312.9C443.908 312.9 444.897 313.34 445.458 313.572C446.824 314.135 448.138 314.645 449.646 314.645C451.153 314.645 452.467 314.135 453.833 313.572C454.394 313.34 455.384 312.9 455.993 312.9C456.602 312.9 457.592 313.34 458.152 313.572C459.519 314.135 460.832 314.645 462.34 314.645C463.848 314.645 465.161 314.135 466.528 313.572C467.089 313.34 468.078 312.9 468.687 312.9C469.166 312.9 469.877 313.17 470.433 313.399V313.4Z" fill="#00B0F5"/>
<path fill-rule="evenodd" clip-rule="evenodd" d="M458.353 228.549L455.149 227.275C453.59 229.269 449.883 230.614 445.81 230.614C441.736 230.614 438.165 229.235 436.611 227.235L432.954 228.215C434.154 231.676 439.413 234.283 445.719 234.283C451.82 234.283 456.94 231.842 458.354 228.549H458.353Z" fill="#00B0F5"/>
<path fill-rule="evenodd" clip-rule="evenodd" d="M396.984 265.54L394.767 270.001L412.262 277.586L413.118 272.979L396.984 265.54Z" fill="#00B0F5"/>
<path fill-rule="evenodd" clip-rule="evenodd" d="M419.863 272.784H437.966C438.921 272.784 439.38 273.623 439.702 274.52L449.225 301.054C449.547 301.951 448.442 302.79 447.489 302.79H429.386C428.433 302.79 427.973 301.952 427.65 301.054L418.128 274.52C417.805 273.621 418.908 272.784 419.863 272.784Z" fill="#FBFBFB"/>
<path d="M419.864 272.467H437.966C438.55 272.467 438.98 272.721 439.312 273.11C439.616 273.467 439.828 273.934 440 274.414L449.523 300.948C449.576 301.094 449.599 301.237 449.599 301.376C449.599 301.746 449.434 302.089 449.173 302.37C448.93 302.631 448.599 302.842 448.244 302.969C447.997 303.058 447.738 303.108 447.489 303.108H429.387C428.804 303.108 428.374 302.854 428.042 302.465C427.737 302.109 427.525 301.641 427.353 301.161L417.831 274.627H417.83C417.778 274.482 417.753 274.339 417.753 274.198C417.753 273.827 417.919 273.484 418.18 273.203C418.423 272.942 418.754 272.732 419.108 272.605C419.355 272.516 419.615 272.467 419.864 272.467L419.864 272.467ZM437.966 273.102H419.864C419.684 273.102 419.497 273.138 419.321 273.201C419.06 273.294 418.818 273.447 418.643 273.635C418.488 273.803 418.388 273.999 418.388 274.198C418.388 274.268 418.4 274.341 418.426 274.414H418.425L427.948 300.948C428.098 301.366 428.278 301.767 428.522 302.053C428.739 302.307 429.016 302.472 429.386 302.472H447.488C447.668 302.472 447.855 302.437 448.031 302.374C448.291 302.28 448.533 302.127 448.708 301.939C448.865 301.77 448.964 301.575 448.964 301.376C448.964 301.304 448.953 301.231 448.927 301.161L439.404 274.627C439.255 274.21 439.075 273.809 438.831 273.522C438.614 273.268 438.337 273.102 437.966 273.102V273.102Z" fill="#201F1F"/>
<path fill-rule="evenodd" clip-rule="evenodd" d="M490.977 265.107L498.023 279.02C498.023 279.02 505.07 293.836 491.157 294.559C477.244 295.282 449.599 300.342 449.599 300.342C449.599 300.342 447.07 297.812 443.456 300.793C439.842 303.775 433.338 292.572 443.005 291.307C443.005 291.307 448.064 290.584 450.955 294.65L481.581 283.628C481.581 283.628 485.646 283.447 483.388 279.562C481.129 275.677 478.6 272.064 478.6 272.064L490.976 265.107H490.977Z" fill="#FBFBFB"/>
<path d="M491.37 264.908L498.417 278.821L498.424 278.833C498.445 278.878 505.753 294.243 491.179 295C477.293 295.721 449.757 300.76 449.679 300.775L449.456 300.816L449.293 300.659C449.287 300.653 447.042 298.406 443.736 301.133C442.646 302.032 441.358 301.867 440.225 301.092C439.31 300.466 438.497 299.425 438.005 298.245C437.509 297.056 437.331 295.713 437.69 294.49C438.198 292.756 439.753 291.288 442.947 290.869L442.95 290.868C442.965 290.866 448.04 290.142 451.113 294.124L481.432 283.213L481.561 283.187C481.57 283.187 484.898 283.038 483.005 279.784C480.752 275.909 478.245 272.327 478.238 272.316L477.959 271.917L478.383 271.679L490.76 264.722L491.161 264.497L491.37 264.908H491.37ZM497.623 279.206L490.791 265.718L479.238 272.212C479.956 273.258 481.951 276.212 483.77 279.341C486.207 283.534 482.257 284.016 481.672 284.063L451.103 295.064L450.789 295.178L450.595 294.905C447.861 291.06 443.071 291.744 443.058 291.746L443.057 291.745C440.283 292.108 438.952 293.318 438.536 294.735C438.239 295.751 438.395 296.887 438.82 297.906C439.248 298.932 439.945 299.83 440.722 300.363C441.537 300.92 442.442 301.057 443.175 300.452C446.525 297.689 449.057 299.329 449.728 299.87C452.283 299.406 477.881 294.807 491.133 294.118C504.384 293.43 497.64 279.247 497.621 279.206H497.622H497.623Z" fill="#201F1F"/>
<path fill-rule="evenodd" clip-rule="evenodd" d="M474.759 271.101L476.51 275.277L496.457 264.58L493.829 260.091L474.759 271.101Z" fill="#00B0F5"/>
<path fill-rule="evenodd" clip-rule="evenodd" d="M472.512 321.171C472.512 321.171 471.838 320.203 471.154 317.342H414.537C414.662 319.01 414.816 320.324 415.004 321.171H472.513H472.512Z" fill="#00B0F5"/>
<path fill-rule="evenodd" clip-rule="evenodd" d="M427.474 499.337V513.492H392.75C390.196 508.849 396.061 507.995 399.063 506.909C404.428 504.968 411.249 500.951 413.111 499.337H427.474Z" fill="#201F1F"/>
<path fill-rule="evenodd" clip-rule="evenodd" d="M492.764 499.337V513.492H467.605C465.754 508.849 470.004 507.995 472.179 506.909C476.066 504.969 477.552 501.123 478.902 499.51L492.764 499.337H492.764Z" fill="#201F1F"/>
<path d="M449.213 202.854C449.38 203.031 449.66 203.04 449.837 202.873C450.014 202.706 450.022 202.427 449.855 202.249C449.846 202.239 446.337 198.502 444.126 202.331C444.004 202.541 444.076 202.812 444.287 202.934C444.498 203.056 444.768 202.984 444.89 202.773C446.507 199.974 449.205 202.846 449.213 202.855L449.213 202.854Z" fill="#201F1F"/>
<path d="M435.204 202.753C435.379 202.922 435.659 202.917 435.828 202.742C435.997 202.566 435.991 202.286 435.816 202.118C435.808 202.11 432.996 199.298 430.172 202.123C429.999 202.296 429.999 202.576 430.172 202.748C430.344 202.921 430.624 202.921 430.797 202.748C432.997 200.548 435.197 202.747 435.204 202.754V202.753Z" fill="#201F1F"/>
<path d="M433.508 204.952C433.231 204.952 432.979 205.064 432.797 205.244L432.799 205.246L432.779 205.264C432.609 205.444 432.505 205.687 432.505 205.955C432.505 206.233 432.617 206.485 432.797 206.665L432.799 206.665L432.802 206.669C432.983 206.847 433.233 206.959 433.508 206.959C433.785 206.959 434.037 206.846 434.218 206.665C434.399 206.484 434.512 206.232 434.512 205.955C434.512 205.678 434.399 205.426 434.218 205.245L434.2 205.226C434.021 205.056 433.776 204.951 433.508 204.951L433.508 204.952ZM432.486 204.933L432.175 204.62C432.516 204.278 432.988 204.067 433.508 204.067C434.016 204.067 434.478 204.268 434.817 204.595L434.844 204.62C435.185 204.961 435.397 205.434 435.397 205.955C435.397 206.477 435.185 206.949 434.844 207.291C434.501 207.633 434.029 207.844 433.508 207.844C432.994 207.844 432.527 207.638 432.186 207.303L432.173 207.291L432.486 206.978L432.173 207.289C431.831 206.947 431.62 206.475 431.62 205.955C431.62 205.449 431.821 204.988 432.147 204.648L432.173 204.619L432.486 204.932V204.933Z" fill="#201F1F"/>
<path d="M440.936 204.867C441.048 204.65 440.963 204.384 440.746 204.273C440.53 204.161 440.263 204.246 440.152 204.462L437.478 209.641C437.385 209.82 437.247 210.05 437.093 210.306L437.092 210.306L437.083 210.322C436.565 211.182 435.882 212.323 435.882 213.214C435.882 214.045 436.349 214.629 437.714 214.629H439.466C439.711 214.629 439.909 214.431 439.909 214.186C439.909 213.942 439.711 213.744 439.466 213.744H437.714C437.009 213.744 436.767 213.525 436.767 213.214C436.767 212.564 437.377 211.546 437.84 210.778L437.85 210.762L437.471 210.535L437.849 210.761C438.014 210.488 438.161 210.243 438.262 210.047L440.936 204.868V204.867Z" fill="#201F1F"/>
<path d="M443.635 214.514C443.664 214.271 443.491 214.051 443.249 214.021C443.007 213.991 442.787 214.164 442.757 214.406C442.756 214.417 442.305 218.356 438.284 217.047C438.052 216.972 437.802 217.099 437.727 217.331C437.652 217.563 437.778 217.812 438.011 217.887C443.06 219.53 443.633 214.527 443.635 214.513L443.635 214.514Z" fill="#201F1F"/>
<path d="M446.014 204.952C445.736 204.952 445.484 205.064 445.303 205.244L445.304 205.246L445.284 205.264C445.115 205.444 445.01 205.687 445.01 205.955C445.01 206.233 445.122 206.485 445.303 206.665L445.304 206.665L445.308 206.669C445.488 206.847 445.738 206.959 446.013 206.959C446.29 206.959 446.542 206.846 446.723 206.665C446.905 206.484 447.017 206.232 447.017 205.955C447.017 205.678 446.904 205.426 446.723 205.245L446.706 205.226C446.526 205.056 446.282 204.951 446.013 204.951L446.014 204.952ZM444.991 204.933L444.68 204.62C445.021 204.278 445.494 204.067 446.014 204.067C446.521 204.067 446.983 204.268 447.322 204.595L447.349 204.62C447.69 204.961 447.903 205.434 447.903 205.955C447.903 206.477 447.691 206.949 447.349 207.291C447.007 207.633 446.534 207.844 446.014 207.844C445.499 207.844 445.032 207.638 444.691 207.303L444.678 207.291L444.991 206.978L444.678 207.289C444.337 206.947 444.125 206.475 444.125 205.955C444.125 205.449 444.326 204.988 444.652 204.648L444.678 204.619L444.991 204.932L444.991 204.933Z" fill="#201F1F"/>
<path fill-rule="evenodd" clip-rule="evenodd" d="M54.3538 367.552C61.8657 368.692 69.2195 370.985 76.1424 374.353L72.8413 383.203L78.6242 375.616C82.5908 377.726 86.3999 380.197 89.9983 383.013L82.1013 404.186L94.9922 387.272C100.137 392.046 104.736 397.601 108.6 403.882L97.6325 433.285L113.307 412.717C115.137 416.732 116.604 420.83 117.718 424.969L111.436 441.81L119.202 431.621C121.714 445.749 120.245 460.079 115.206 472.951C105.39 471.463 95.8429 468.003 87.174 462.748L95.9764 461.619L81.9024 459.252C78.2369 456.6 74.7683 453.602 71.5497 450.275L86.1243 448.405L67.0431 445.197C65.3832 443.156 63.8096 441.014 62.3317 438.774L72.3482 437.489L60.2564 435.455C60.1031 435.196 59.9505 434.936 59.7994 434.674C58.7572 432.869 57.7953 431.041 56.9106 429.193L76.8659 426.633L54.1889 422.82C53.4808 420.939 52.8498 419.044 52.2939 417.139L68.2959 415.086L51.0187 412.181C50.1249 408.165 49.5578 404.123 49.3067 400.092L68.7572 397.596L49.1631 394.301C49.2796 385.07 51.048 375.998 54.3538 367.554V367.552Z" fill="#00B0F5"/>
<path fill-rule="evenodd" clip-rule="evenodd" d="M115.29 472.731C115.262 472.804 115.234 472.878 115.206 472.951C115.114 472.937 115.023 472.923 114.932 472.909C82.7191 428.583 59.6569 374.973 59.5898 374.817L59.9521 374.659C60.0192 374.815 83.084 428.432 115.291 472.731H115.29Z" fill="#3A3A3A"/>
<path fill-rule="evenodd" clip-rule="evenodd" d="M168.649 367.552C161.137 368.692 153.783 370.985 146.861 374.353L150.162 383.203L144.379 375.616C140.412 377.726 136.603 380.197 133.005 383.013L140.902 404.186L128.011 387.272C122.866 392.046 118.267 397.601 114.403 403.882L125.37 433.285L109.696 412.717C107.866 416.732 106.399 420.83 105.285 424.969L111.567 441.81L103.801 431.621C101.289 445.749 102.758 460.079 107.797 472.951C117.613 471.463 127.16 468.003 135.829 462.748L127.027 461.619L141.101 459.252C144.766 456.6 148.235 453.602 151.453 450.275L136.879 448.405L155.96 445.197C157.62 443.156 159.193 441.014 160.671 438.774L150.655 437.489L162.747 435.455C162.9 435.196 163.053 434.936 163.204 434.674C164.246 432.869 165.208 431.041 166.092 429.193L146.137 426.633L168.814 422.82C169.522 420.939 170.153 419.044 170.709 417.139L154.707 415.086L171.984 412.181C172.878 408.165 173.445 404.123 173.696 400.092L154.246 397.596L173.84 394.301C173.723 385.07 171.955 375.998 168.649 367.554V367.552Z" fill="#00B0F5"/>
<path fill-rule="evenodd" clip-rule="evenodd" d="M107.713 472.731C107.741 472.804 107.769 472.878 107.798 472.951C107.889 472.937 107.98 472.923 108.072 472.909C140.284 428.583 163.346 374.973 163.413 374.817L163.051 374.659C162.984 374.815 139.919 428.432 107.712 472.731H107.713Z" fill="#3A3A3A"/>
<path fill-rule="evenodd" clip-rule="evenodd" d="M160.16 462.593C160.877 465.956 161.258 469.444 161.258 473.02C161.258 489.192 153.542 503.559 141.592 512.647H81.4121C69.4623 503.559 61.7456 489.192 61.7456 473.02C61.7456 469.443 62.1265 465.955 62.8437 462.593H160.16Z" fill="#FBFBFB"/>
<path d="M160.587 462.502C160.951 464.21 161.23 465.954 161.417 467.73C161.601 469.476 161.695 471.242 161.695 473.021C161.695 481.021 159.822 488.586 156.49 495.299C153.031 502.269 147.997 508.322 141.855 512.994L141.592 513.084H81.4128L81.15 512.994C75.0075 508.322 69.9743 502.269 66.5147 495.299C63.1828 488.586 61.3091 481.021 61.3091 473.021C61.3091 471.242 61.4038 469.476 61.5878 467.73C61.7746 465.954 62.0533 464.21 62.4178 462.502L62.4917 462.156H62.8444H160.161H160.514L160.588 462.502H160.587ZM160.55 467.818C160.38 466.202 160.13 464.604 159.806 463.03H63.1982C62.8742 464.603 62.6242 466.201 62.4539 467.818C62.2752 469.52 62.1826 471.256 62.1826 473.021C62.1826 480.885 64.0228 488.318 67.2957 494.913C70.6733 501.719 75.5768 507.634 81.557 512.21H141.447C147.427 507.634 152.331 501.719 155.708 494.913C158.981 488.318 160.821 480.885 160.821 473.021C160.821 471.256 160.729 469.52 160.55 467.818Z" fill="#464041"/>
<path fill-rule="evenodd" clip-rule="evenodd" d="M165.284 474.424H57.7188V460.473H165.284V474.424Z" fill="#192832"/>
</g>
<defs>
<clipPath id="clip0_20_1131">
<rect width="532" height="532" fill="white"/>
</clipPath>
</defs>
</svg>
