<svg width="388" height="342" viewBox="0 0 388 342" fill="none" xmlns="http://www.w3.org/2000/svg">
<path d="M193.89 341.887C300.972 341.887 387.78 336.819 387.78 330.567C387.78 324.315 300.972 319.247 193.89 319.247C86.8075 319.247 0 324.315 0 330.567C0 336.819 86.8075 341.887 193.89 341.887Z" fill="#F5F5F5"/>
<path d="M174.02 327.947C174.121 328.255 174.145 328.583 174.091 328.903C174.037 329.223 173.906 329.525 173.709 329.783C173.512 330.041 173.255 330.247 172.961 330.383C172.667 330.52 172.344 330.583 172.02 330.567H32.7198C28.3698 330.567 28.3698 302.237 32.7198 302.237H172.06C172.383 302.221 172.704 302.284 172.998 302.42C173.291 302.556 173.547 302.761 173.743 303.018C173.94 303.274 174.071 303.575 174.127 303.893C174.182 304.212 174.159 304.539 174.06 304.847C172.32 310.247 172.32 322.557 174.02 327.947Z" fill="#407BFF"/>
<path opacity="0.8" d="M173.82 305.547H89.29C85.96 305.547 85.96 327.257 89.29 327.257H173.82C172.39 321.807 172.39 310.987 173.82 305.547Z" fill="white"/>
<path opacity="0.2" d="M85.0798 327.947C85.1807 328.255 85.2052 328.583 85.151 328.903C85.0969 329.223 84.9657 329.525 84.7689 329.783C84.572 330.041 84.3154 330.247 84.0211 330.383C83.7269 330.52 83.4038 330.583 83.0798 330.567H32.7198C28.3698 330.567 28.3698 302.237 32.7198 302.237H83.1198C83.4426 302.221 83.7644 302.284 84.0577 302.42C84.3509 302.556 84.6067 302.761 84.8033 303.018C84.9999 303.274 85.1314 303.575 85.1865 303.893C85.2416 304.212 85.2187 304.539 85.1198 304.847C83.3798 310.247 83.3798 322.557 85.0798 327.947Z" fill="black"/>
<path d="M54.2 302.237H42.69C38.34 302.237 38.34 330.567 42.69 330.567H54.2C49.89 330.567 49.89 302.237 54.2 302.237Z" fill="#407BFF"/>
<path d="M63.2698 302.237H58.7498C54.3998 302.237 54.3998 330.567 58.7498 330.567H63.2698C58.8898 330.567 58.8898 302.237 63.2698 302.237Z" fill="#407BFF"/>
<path d="M24.5999 299.887C24.1199 301.047 25.2999 302.237 26.8999 302.237H152.18C157.29 302.237 157.29 276.767 152.18 276.767H26.8899C25.2899 276.767 24.1099 277.947 24.5899 279.117C26.5899 283.967 26.5899 295.037 24.5999 299.887Z" fill="#263238"/>
<path opacity="0.2" d="M24.5999 299.887C24.1199 301.047 25.2999 302.237 26.8999 302.237H88.3299C93.4399 302.237 93.4399 276.767 88.3299 276.767H26.8899C25.2899 276.767 24.1099 277.947 24.5899 279.117C26.5899 283.967 26.5899 295.037 24.5999 299.887Z" fill="black"/>
<path opacity="0.8" d="M24.8198 279.737H85.8198C89.7298 279.737 89.7298 299.257 85.8198 299.257H24.8198C26.4998 294.327 26.4998 284.637 24.8198 279.737Z" fill="white"/>
<path opacity="0.2" d="M106.08 282.447C105.7 281.317 106.8 280.217 108.32 280.217H143.39C147.11 280.217 147.11 298.777 143.39 298.777H108.32C106.8 298.777 105.7 297.687 106.08 296.557C107.28 291.93 107.28 287.073 106.08 282.447Z" fill="white"/>
<path d="M359.62 288.517C359.731 288.855 359.762 289.214 359.713 289.566C359.663 289.919 359.533 290.255 359.333 290.55C359.133 290.844 358.869 291.089 358.56 291.265C358.251 291.441 357.905 291.545 357.55 291.567H210.35C205.75 291.567 205.75 258.567 210.35 258.567H357.55C357.899 258.591 358.239 258.693 358.543 258.867C358.848 259.04 359.109 259.28 359.308 259.568C359.507 259.856 359.638 260.186 359.692 260.532C359.746 260.878 359.721 261.231 359.62 261.567C357.83 267.917 357.83 282.247 359.62 288.517Z" fill="#407BFF"/>
<path opacity="0.5" d="M359.62 288.517C359.731 288.855 359.762 289.214 359.713 289.566C359.663 289.919 359.533 290.255 359.333 290.55C359.133 290.844 358.869 291.089 358.56 291.265C358.251 291.441 357.905 291.545 357.55 291.567H210.35C205.75 291.567 205.75 258.567 210.35 258.567H357.55C357.899 258.591 358.239 258.693 358.543 258.867C358.848 259.04 359.109 259.28 359.308 259.568C359.507 259.856 359.638 260.186 359.692 260.532C359.746 260.878 359.721 261.231 359.62 261.567C357.83 267.917 357.83 282.247 359.62 288.517Z" fill="white"/>
<path opacity="0.8" d="M359.42 262.447H270.11C266.59 262.447 266.59 287.707 270.11 287.707H359.42C357.89 281.377 357.89 268.787 359.42 262.447Z" fill="white"/>
<path opacity="0.6" d="M265.66 288.517C265.771 288.855 265.802 289.214 265.753 289.566C265.703 289.919 265.573 290.255 265.373 290.55C265.173 290.844 264.909 291.089 264.6 291.265C264.291 291.441 263.945 291.545 263.59 291.567H210.35C205.75 291.567 205.75 258.567 210.35 258.567H263.59C263.939 258.591 264.279 258.693 264.583 258.867C264.888 259.04 265.149 259.28 265.348 259.568C265.547 259.856 265.678 260.186 265.732 260.532C265.786 260.878 265.761 261.231 265.66 261.567C263.89 267.917 263.89 282.247 265.66 288.517Z" fill="#407BFF"/>
<path opacity="0.5" d="M244.06 261.037C244.164 260.778 244.206 260.499 244.183 260.221C244.16 259.944 244.072 259.675 243.926 259.438C243.78 259.201 243.58 259.001 243.343 258.855C243.106 258.709 242.837 258.62 242.56 258.597H222.26C217.66 258.597 217.66 291.597 222.26 291.597H242.56C242.838 291.572 243.106 291.482 243.343 291.335C243.58 291.187 243.78 290.987 243.925 290.749C244.071 290.511 244.159 290.242 244.183 289.964C244.206 289.685 244.164 289.406 244.06 289.147C242.01 283.017 242.01 267.147 244.06 261.037Z" fill="white"/>
<path d="M349.06 326.937C349.178 327.375 349.191 327.836 349.096 328.28C349.001 328.724 348.801 329.139 348.514 329.491C348.227 329.843 347.859 330.121 347.443 330.303C347.027 330.485 346.573 330.565 346.12 330.537H193.18C186.65 330.537 186.64 291.537 193.18 291.537H346.18C346.633 291.508 347.087 291.588 347.503 291.77C347.919 291.952 348.287 292.23 348.574 292.582C348.861 292.934 349.061 293.349 349.156 293.793C349.251 294.238 349.238 294.698 349.12 295.137C346.51 302.567 346.52 319.517 349.06 326.937Z" fill="#407BFF"/>
<path opacity="0.2" d="M349.06 326.937C349.178 327.375 349.191 327.836 349.096 328.28C349.001 328.724 348.801 329.139 348.514 329.491C348.227 329.843 347.859 330.121 347.443 330.303C347.027 330.485 346.573 330.565 346.12 330.537H193.18C186.65 330.537 186.64 291.537 193.18 291.537H346.18C346.633 291.508 347.087 291.588 347.503 291.77C347.919 291.952 348.287 292.23 348.574 292.582C348.861 292.934 349.061 293.349 349.156 293.793C349.251 294.238 349.238 294.698 349.12 295.137C346.51 302.567 346.52 319.517 349.06 326.937Z" fill="white"/>
<path opacity="0.8" d="M348.76 296.097H256.29C251.29 296.097 251.29 325.977 256.29 325.977H348.77C346.63 318.487 346.63 303.597 348.76 296.097Z" fill="white"/>
<path opacity="0.6" d="M249.97 326.957C250.09 327.394 250.104 327.855 250.011 328.299C249.917 328.744 249.719 329.159 249.432 329.511C249.146 329.864 248.779 330.142 248.363 330.324C247.947 330.506 247.493 330.586 247.04 330.557H193.18C186.65 330.557 186.64 291.557 193.18 291.557H247.04C247.493 291.528 247.947 291.608 248.363 291.79C248.78 291.972 249.147 292.25 249.434 292.602C249.721 292.954 249.921 293.369 250.016 293.813C250.11 294.258 250.098 294.718 249.98 295.157C247.43 302.587 247.43 319.527 249.97 326.957Z" fill="#407BFF"/>
<path opacity="0.5" d="M217.71 292.917C217.793 292.774 217.836 292.611 217.832 292.445C217.829 292.28 217.781 292.119 217.692 291.979C217.603 291.84 217.477 291.728 217.329 291.655C217.18 291.582 217.014 291.551 216.85 291.567H207.7C201.18 291.567 201.18 330.567 207.7 330.567H216.89C217.055 330.582 217.22 330.551 217.369 330.479C217.517 330.406 217.643 330.294 217.732 330.154C217.821 330.015 217.869 329.853 217.872 329.688C217.876 329.523 217.833 329.36 217.75 329.217C213.78 323.187 213.78 298.937 217.71 292.917Z" fill="white"/>
<path opacity="0.5" d="M231.99 292.917C232.072 292.773 232.114 292.61 232.11 292.444C232.107 292.279 232.058 292.117 231.97 291.978C231.881 291.838 231.756 291.725 231.608 291.65C231.46 291.576 231.295 291.544 231.13 291.557H221.98C215.46 291.557 215.46 330.557 221.98 330.557H231.13C231.294 330.57 231.458 330.538 231.605 330.464C231.752 330.391 231.876 330.278 231.964 330.139C232.051 330 232.099 329.84 232.102 329.675C232.105 329.511 232.063 329.349 231.98 329.207C228.06 323.187 228.06 298.927 231.99 292.917Z" fill="white"/>
<path d="M347.56 237.847C347.383 235.069 346.73 232.343 345.63 229.787L346.53 229.347C347.673 232.011 348.35 234.853 348.53 237.747L347.56 237.847Z" fill="#407BFF"/>
<path d="M341.29 225.457H316.45V226.457H341.29V225.457Z" fill="#407BFF"/>
<path d="M179.4 255.867C178.89 257.227 180.14 258.597 181.83 258.597H341.29C346.68 258.597 346.68 228.957 341.29 228.957H181.83C180.14 228.957 178.89 230.337 179.4 231.697C181.5 237.327 181.5 250.217 179.4 255.867Z" fill="#407BFF"/>
<path opacity="0.2" d="M179.4 255.867C178.89 257.227 180.14 258.597 181.83 258.597H273.83C279.23 258.597 279.23 228.957 273.83 228.957H181.83C180.14 228.957 178.89 230.337 179.4 231.697C181.5 237.327 181.5 250.217 179.4 255.867Z" fill="black"/>
<path opacity="0.8" d="M179.64 232.427H271.16C275.3 232.427 275.3 255.137 271.16 255.137H179.64C181.41 249.437 181.41 238.127 179.64 232.427Z" fill="white"/>
<path opacity="0.2" d="M292.58 235.567C292.18 234.257 293.34 232.987 294.94 232.987H332C335.93 232.987 335.93 254.577 332 254.577H294.94C293.34 254.577 292.18 253.307 292.58 251.987C293.89 247.837 293.89 239.727 292.58 235.567Z" fill="white"/>
<path d="M164.49 12.3266C159.98 17.1566 148.97 12.3266 147.29 25.6266C145.47 39.9666 152.37 46.8566 143.46 50.6266C129.46 56.4766 119.46 79.8566 138.9 88.6266C158.34 97.3966 199.74 88.2066 195.08 70.3366C190.42 52.4666 191.34 42.8766 196.84 34.4566C204.09 23.3266 202.54 9.02664 196.63 3.84664C187.43 -4.25336 174.72 1.32664 164.49 12.3266Z" fill="#263238"/>
<path d="M188.55 69.8566C188.474 69.8596 188.399 69.8333 188.341 69.7831C188.284 69.7329 188.247 69.6626 188.24 69.5866C188.233 69.5464 188.234 69.5052 188.243 69.4655C188.253 69.4258 188.27 69.3884 188.295 69.3556C188.319 69.3229 188.35 69.2954 188.385 69.275C188.42 69.2545 188.459 69.2415 188.5 69.2366C192.36 68.7066 194.66 67.7566 195.74 66.2366C197.08 64.3466 196.5 61.5366 195.74 57.9766C194.56 52.1866 192.93 44.2566 198.13 34.2366C204.44 22.0866 202.13 8.76664 196.22 4.40664C196.154 4.35858 196.11 4.2865 196.097 4.20601C196.084 4.12552 196.103 4.04311 196.15 3.97664C196.2 3.91008 196.274 3.86555 196.356 3.85249C196.438 3.83942 196.522 3.85884 196.59 3.90664C202.75 8.41664 205.13 22.0966 198.68 34.5266C193.59 44.3466 195.19 52.1566 196.35 57.8566C197.11 61.5566 197.71 64.4866 196.21 66.5966C195.03 68.2666 192.6 69.2966 188.56 69.8566H188.55Z" fill="#263238"/>
<path d="M138.13 52.5367C137.498 52.5341 136.867 52.494 136.24 52.4167C136.199 52.4118 136.159 52.3988 136.124 52.3784C136.088 52.3581 136.056 52.3308 136.031 52.2983C136.006 52.2657 135.988 52.2284 135.977 52.1887C135.967 52.1489 135.964 52.1075 135.97 52.0667C135.975 52.0259 135.988 51.9864 136.008 51.9506C136.028 51.9148 136.056 51.8835 136.088 51.8584C136.121 51.8332 136.158 51.8148 136.198 51.8042C136.237 51.7937 136.279 51.7911 136.32 51.7967C139.16 52.1467 141.22 51.7267 142.61 50.5067C145.21 48.2167 145.25 43.4267 145.28 37.8767C145.28 31.5967 145.37 24.4867 149.44 19.6367C149.466 19.6052 149.498 19.5792 149.534 19.5601C149.571 19.541 149.611 19.5293 149.651 19.5256C149.692 19.5219 149.733 19.5262 149.773 19.5384C149.812 19.5506 149.848 19.5704 149.88 19.5967C149.911 19.623 149.937 19.6552 149.956 19.6915C149.975 19.7278 149.987 19.7676 149.991 19.8084C149.995 19.8493 149.99 19.8905 149.978 19.9296C149.966 19.9688 149.946 20.0052 149.92 20.0367C145.99 24.7167 145.92 31.7067 145.92 37.8867C145.92 43.5767 145.85 48.4967 143.04 50.9767C141.654 52.0896 139.903 52.6459 138.13 52.5367Z" fill="#263238"/>
<path d="M236.28 228.937C229.61 228.857 226.99 228.437 223.92 228.487C220.85 228.537 220.12 229.077 216.92 228.937C214.76 228.847 214.75 226.277 215.58 224.517C216.23 223.137 217.03 221.747 217.77 220.027L226.23 220.647C227.37 223.867 233.03 225.247 237.99 226.387C239.96 226.857 238.95 228.967 236.28 228.937Z" fill="#407BFF"/>
<path d="M192.17 106.087C192.17 106.087 214.55 125.337 237.17 145.757C246.73 154.407 226.68 220.357 226.68 220.357C226.26 221.767 218.8 219.757 217.68 218.647C217.68 218.647 216.54 167.457 221.39 157.147C171.23 144.467 163.39 119.837 163.39 119.837L166.99 104.557L192.17 106.087Z" fill="#263238"/>
<path opacity="0.2" d="M166.7 125.907C169.507 129.831 172.834 133.356 176.59 136.387C181.59 130.537 180.19 121.087 180.19 121.087L166.7 125.907Z" fill="black"/>
<path d="M228.42 217.507C228.28 218.507 228.04 220.277 227.91 221.587C227.89 221.799 227.789 221.995 227.63 222.136C227.47 222.278 227.263 222.353 227.05 222.347C223.703 222.084 220.389 221.508 217.15 220.627C216.994 220.583 216.856 220.491 216.757 220.363C216.658 220.235 216.603 220.078 216.6 219.917L216.53 216.267C216.529 216.148 216.554 216.03 216.601 215.922C216.649 215.813 216.719 215.715 216.806 215.635C216.894 215.555 216.997 215.495 217.11 215.457C217.222 215.419 217.342 215.405 217.46 215.417L227.78 216.667C227.878 216.678 227.973 216.708 228.059 216.757C228.145 216.806 228.22 216.871 228.279 216.95C228.339 217.028 228.383 217.118 228.407 217.214C228.431 217.31 228.435 217.409 228.42 217.507Z" fill="#263238"/>
<path opacity="0.3" d="M228.42 217.507C228.28 218.507 228.04 220.277 227.91 221.587C227.89 221.799 227.789 221.995 227.63 222.136C227.47 222.278 227.263 222.353 227.05 222.347C223.703 222.084 220.389 221.508 217.15 220.627C216.994 220.583 216.856 220.491 216.757 220.363C216.658 220.235 216.603 220.078 216.6 219.917L216.53 216.267C216.529 216.148 216.554 216.03 216.601 215.922C216.649 215.813 216.719 215.715 216.806 215.635C216.894 215.555 216.997 215.495 217.11 215.457C217.222 215.419 217.342 215.405 217.46 215.417L227.78 216.667C227.878 216.678 227.973 216.708 228.059 216.757C228.145 216.806 228.22 216.871 228.279 216.95C228.339 217.028 228.383 217.118 228.407 217.214C228.431 217.31 228.435 217.409 228.42 217.507Z" fill="white"/>
<path d="M138.36 276.767C131.58 276.767 129.36 274.217 125.57 273.517C122.37 272.917 121.52 273.197 118.94 272.747C116.78 272.367 116.61 270.887 117.94 268.697C118.807 267.183 119.544 265.597 120.14 263.957L130.42 264.637C131.49 267.387 133.96 272.977 137.73 273.637C141.28 274.327 141.06 276.767 138.36 276.767Z" fill="#407BFF"/>
<path d="M190.62 106.027C190.62 106.027 166.97 148.077 157.45 174.087C147.45 201.407 131.53 246.087 130.38 264.637C128.68 265.447 123.1 265.137 120.1 263.957C120.1 263.957 117.32 199.957 136.57 174.317C141.16 119.407 148.78 110.627 156.88 103.937L190.62 106.027Z" fill="#263238"/>
<path d="M131.62 260.847C131.497 262.113 131.464 263.386 131.52 264.657C131.534 264.878 131.459 265.096 131.313 265.262C131.167 265.429 130.961 265.531 130.74 265.547C126.91 265.897 121.57 264.667 119.88 264.247C119.723 264.207 119.583 264.118 119.482 263.991C119.381 263.865 119.324 263.708 119.32 263.547L119.19 259.967C119.188 259.849 119.211 259.732 119.257 259.624C119.302 259.515 119.37 259.418 119.456 259.337C119.541 259.256 119.643 259.194 119.754 259.154C119.864 259.114 119.982 259.098 120.1 259.107L130.94 260.037C131.038 260.044 131.134 260.071 131.221 260.116C131.309 260.161 131.387 260.223 131.45 260.299C131.513 260.374 131.561 260.461 131.59 260.556C131.619 260.65 131.629 260.749 131.62 260.847Z" fill="#263238"/>
<path opacity="0.3" d="M131.62 260.847C131.497 262.113 131.464 263.386 131.52 264.657C131.534 264.878 131.459 265.096 131.313 265.262C131.167 265.429 130.961 265.531 130.74 265.547C126.91 265.897 121.57 264.667 119.88 264.247C119.723 264.207 119.583 264.118 119.482 263.991C119.381 263.865 119.324 263.708 119.32 263.547L119.19 259.967C119.188 259.849 119.211 259.732 119.257 259.624C119.302 259.515 119.37 259.418 119.456 259.337C119.541 259.256 119.643 259.194 119.754 259.154C119.864 259.114 119.982 259.098 120.1 259.107L130.94 260.037C131.038 260.044 131.134 260.071 131.221 260.116C131.309 260.161 131.387 260.223 131.45 260.299C131.513 260.374 131.561 260.461 131.59 260.556C131.619 260.65 131.629 260.749 131.62 260.847Z" fill="white"/>
<path d="M196.89 64.7766C197.89 66.6666 198.97 68.7766 200.07 70.7766C201.17 72.7766 202.28 74.7766 203.4 76.7266C205.66 80.6566 208.02 84.5066 210.55 88.1366L209.19 86.9266C210.193 87.632 211.3 88.1784 212.47 88.5466C213.885 89.0213 215.337 89.3825 216.81 89.6266C218.35 89.9066 219.95 90.0966 221.58 90.2466C223.21 90.3966 224.92 90.4866 226.48 90.5866H226.69C227.339 90.6239 227.956 90.8862 228.433 91.3285C228.91 91.7708 229.218 92.3654 229.304 93.0103C229.391 93.6551 229.25 94.3099 228.906 94.8622C228.562 95.4144 228.037 95.8297 227.42 96.0366C225.633 96.6311 223.805 97.0924 221.95 97.4166C220.086 97.7481 218.202 97.9519 216.31 98.0266C214.303 98.1037 212.293 97.9831 210.31 97.6666C208.071 97.3293 205.907 96.6123 203.91 95.5466C203.495 95.3198 203.125 95.018 202.82 94.6566L202.55 94.3366C200.96 92.4366 199.41 90.4966 197.99 88.5066C196.57 86.5166 195.18 84.5066 193.89 82.5066C192.6 80.5066 191.35 78.3766 190.17 76.2666C188.99 74.1566 187.87 72.0666 186.8 69.7566C186.238 68.444 186.199 66.9663 186.69 65.6258C187.182 64.2852 188.167 63.183 189.444 62.5445C190.721 61.9059 192.194 61.7793 193.561 62.1905C194.928 62.6017 196.087 63.5196 196.8 64.7566L196.89 64.7766Z" fill="#FFB573"/>
<path d="M191.37 56.7067C197.9 58.8567 198.96 61.7867 202.54 72.6067C200.16 79.0967 190.54 82.3867 190.54 82.3867C190.54 82.3867 179.18 63.8867 191.37 56.7067Z" fill="#407BFF"/>
<path d="M200.31 70.7866C199.94 74.3666 199.02 78.6366 197.09 87.0266C195.59 94.1466 195.57 108.027 193.17 108.757C188.56 111.037 177.02 110.157 156.88 103.937C157.52 93.5366 158.73 86.4766 155.27 62.6166C155.052 61.3658 155.116 60.0821 155.457 58.8591C155.798 57.636 156.407 56.5044 157.24 55.5465C158.074 54.5886 159.11 53.8286 160.274 53.3217C161.438 52.8149 162.701 52.574 163.97 52.6166C165.43 52.6166 166.97 52.7366 168.54 52.8766C174.079 53.2098 179.586 53.9417 185.02 55.0666C186.79 55.4666 188.62 55.9366 190.36 56.4166C193.424 57.2918 196.09 59.2021 197.905 61.8223C199.719 64.4424 200.569 67.6103 200.31 70.7866Z" fill="#407BFF"/>
<path d="M129.81 112.147L131.81 110.317C132.182 109.976 132.467 109.552 132.641 109.079C132.815 108.605 132.873 108.097 132.81 107.597L132.26 102.827C132.155 101.889 131.828 100.99 131.306 100.204C130.784 99.4182 130.083 98.7677 129.26 98.3067L128.26 97.7367C124.69 100.547 122.9 106.207 122.9 106.207L122.21 107.767C122.058 108.082 121.971 108.424 121.953 108.774C121.934 109.123 121.986 109.473 122.104 109.802C122.222 110.132 122.405 110.434 122.641 110.693C122.877 110.951 123.162 111.16 123.48 111.307L126.55 112.707C127.09 112.937 127.684 113.006 128.262 112.907C128.841 112.808 129.378 112.544 129.81 112.147Z" fill="#FFB573"/>
<path d="M234.78 88.1267L232.22 87.1267C231.746 86.9477 231.236 86.8851 230.733 86.9443C230.23 87.0034 229.749 87.1826 229.33 87.4667L225.33 90.1467C224.545 90.6748 223.898 91.3837 223.444 92.2137C222.989 93.0438 222.741 93.9707 222.72 94.9167V96.1067C226.85 97.9867 232.72 96.9667 232.72 96.9667L234.42 96.8667C234.77 96.8551 235.114 96.7744 235.432 96.6291C235.75 96.4838 236.037 96.2769 236.275 96.0203C236.513 95.7636 236.698 95.4624 236.819 95.134C236.94 94.8055 236.994 94.4564 236.98 94.1067L236.82 90.7367C236.774 90.1494 236.555 89.5887 236.193 89.1246C235.83 88.6605 235.338 88.3134 234.78 88.1267Z" fill="#FFB573"/>
<path d="M161.23 65.8366L159.95 66.4266L158.55 67.0666C157.62 67.5166 156.7 67.9866 155.78 68.4666C153.93 69.4666 152.13 70.4666 150.36 71.5166C148.59 72.5666 146.88 73.7366 145.22 74.9266C143.56 76.1166 142.02 77.4166 140.52 78.7466L141.18 77.9066C140.692 78.6238 140.264 79.3796 139.9 80.1666C139.46 81.0766 139.05 82.0666 138.65 83.0766C137.85 85.0766 137.07 87.2166 136.35 89.3666C135.63 91.5166 134.9 93.6966 134.19 95.8766L132.03 102.447C131.82 103.092 131.384 103.639 130.801 103.987C130.218 104.335 129.529 104.459 128.862 104.337C128.195 104.214 127.594 103.854 127.173 103.322C126.751 102.791 126.537 102.124 126.57 101.447C126.68 99.0366 126.9 96.6966 127.17 94.3366C127.44 91.9766 127.78 89.6266 128.17 87.2666C128.56 84.9066 129.07 82.5366 129.72 80.1366C130.04 78.9366 130.39 77.7366 130.83 76.4766C131.295 75.0897 131.891 73.7503 132.61 72.4766C132.736 72.268 132.88 72.0706 133.04 71.8866L133.28 71.6366C134.927 69.8205 136.691 68.1135 138.56 66.5266C140.402 64.9611 142.331 63.502 144.34 62.1566C146.321 60.8132 148.374 59.5781 150.49 58.4566C151.55 57.8966 152.62 57.3666 153.71 56.8466C154.26 56.5966 154.8 56.3366 155.37 56.0966C155.94 55.8566 156.46 55.6466 157.17 55.3766C158.532 54.8322 160.053 54.8447 161.405 55.4116C162.758 55.9785 163.834 57.0542 164.4 58.4069C164.967 59.7596 164.98 61.2808 164.435 62.6426C163.891 64.0044 162.833 65.0976 161.49 65.6866L161.23 65.8366Z" fill="#FFB573"/>
<path d="M170.89 55.2166C165.99 51.7066 163.01 51.3266 151.15 56.4766C149.74 63.9366 154.36 74.8866 154.36 74.8866C154.36 74.8866 170.14 66.6666 170.89 55.2166Z" fill="#407BFF"/>
<path d="M172.17 34.4366C172.9 39.9266 173.37 49.8766 169.45 52.9566C169.45 52.9566 174.57 52.8666 184.36 60.8766C188.03 56.8766 185.93 55.1467 185.93 55.1467C180.1 52.9367 180.51 48.5266 181.78 44.4966L172.17 34.4366Z" fill="#FFB573"/>
<path d="M182.29 59.2566C178.72 59.2566 176.91 64.4466 176.91 64.4466C176.91 64.4466 168.33 57.6066 167.16 52.7966C168.299 52.3372 169.414 51.8199 170.5 51.2466C170.5 51.2466 180.51 56.9566 182.29 59.2566Z" fill="white"/>
<path d="M185.71 59.1267C185.71 59.1267 188.41 60.1267 189.3 64.1267C191.13 56.5067 187.56 55.3067 187.56 55.3067C186.665 54.6359 185.553 54.3222 184.44 54.4267C185.17 54.9362 185.697 55.6864 185.929 56.5458C186.161 57.4052 186.084 58.3188 185.71 59.1267Z" fill="white"/>
<path opacity="0.2" d="M176.09 38.5366L181.77 44.5366C181.46 45.4746 181.236 46.4384 181.1 47.4166C178.86 46.7866 175.9 43.8766 175.8 41.4166C175.718 40.447 175.817 39.4706 176.09 38.5366Z" fill="black"/>
<path d="M166.01 26.4466C168.01 34.9866 168.74 38.6366 173.87 42.5366C181.58 48.3966 191.59 44.5966 192.13 35.7566C192.61 27.7566 189.19 15.1566 180.13 12.7566C178.21 12.1795 176.171 12.1254 174.223 12.5999C172.275 13.0744 170.49 14.0603 169.05 15.4557C167.611 16.8512 166.57 18.6057 166.036 20.5378C165.501 22.47 165.492 24.5098 166.01 26.4466Z" fill="#FFB573"/>
<path d="M167.68 32.5867C170.82 31.0467 174.15 23.4767 169.68 19.8967C173.37 20.5867 177.6 19.5967 181.51 16.5767C186.61 12.5767 194.12 22.5067 191.65 16.6767C188.09 8.2767 177.36 6.1767 167.65 13.1567C157.94 20.1367 158.63 28.6267 167.68 32.5867Z" fill="#263238"/>
<path d="M165.02 30.8766C164.986 30.8732 164.954 30.8589 164.928 30.8359C164.903 30.8129 164.886 30.7824 164.879 30.7488C164.872 30.7152 164.876 30.6804 164.891 30.6494C164.905 30.6184 164.93 30.5929 164.96 30.5766C167.46 29.4966 178.07 27.2366 178.52 27.1466C178.54 27.1407 178.562 27.1391 178.583 27.1421C178.604 27.1451 178.624 27.1525 178.642 27.1638C178.66 27.1752 178.675 27.1902 178.687 27.2079C178.699 27.2256 178.706 27.2456 178.71 27.2666C178.716 27.3062 178.707 27.3466 178.685 27.38C178.663 27.4133 178.629 27.4371 178.59 27.4466C178.48 27.4466 167.59 29.7966 165.08 30.8666L165.02 30.8766Z" fill="white"/>
<path opacity="0.2" d="M177.89 27.3266C176.818 26.8552 175.603 26.8265 174.51 27.2466C175.621 27.4925 176.769 27.5197 177.89 27.3266Z" fill="black"/>
<path opacity="0.2" d="M177.8 28.0867C177.28 27.9769 176.742 27.9818 176.224 28.1009C175.706 28.2201 175.22 28.4507 174.8 28.7767C175.837 28.7601 176.859 28.525 177.8 28.0867Z" fill="black"/>
<path d="M179.75 27.2066C179.89 27.9366 180.38 28.4766 180.85 28.4166C181.32 28.3566 181.58 27.7266 181.44 26.9966C181.3 26.2666 180.8 25.7366 180.34 25.7866C179.88 25.8366 179.61 26.4866 179.75 27.2066Z" fill="#263238"/>
<path d="M188.53 26.2566C188.67 26.9766 189.17 27.5166 189.63 27.4666C190.09 27.4166 190.36 26.7666 190.22 26.0466C190.08 25.3266 189.59 24.7766 189.12 24.8366C188.65 24.8966 188.39 25.5266 188.53 26.2566Z" fill="#263238"/>
<path d="M188.89 24.9066L190.51 24.1866C190.51 24.1866 189.89 25.6566 188.89 24.9066Z" fill="#263238"/>
<path d="M186.89 27.6466C187.755 29.278 188.824 30.7934 190.07 32.1566C189.729 32.4429 189.329 32.6497 188.898 32.7622C188.467 32.8746 188.017 32.8898 187.58 32.8066L186.89 27.6466Z" fill="#ED893E"/>
<path d="M183.74 36.0367C184.142 36.071 184.547 36.071 184.95 36.0367C184.977 36.0332 185.004 36.024 185.027 36.0097C185.051 35.9955 185.071 35.9765 185.087 35.9539C185.103 35.9314 185.114 35.9058 185.12 35.8787C185.126 35.8516 185.126 35.8237 185.12 35.7967C185.11 35.7392 185.079 35.6877 185.032 35.6524C184.986 35.6171 184.928 35.6008 184.87 35.6067C183.965 35.7163 183.047 35.6234 182.182 35.3346C181.317 35.0457 180.527 34.5683 179.87 33.9367C179.85 33.9167 179.827 33.9009 179.801 33.8901C179.775 33.8792 179.748 33.8737 179.72 33.8737C179.692 33.8737 179.664 33.8792 179.638 33.8901C179.613 33.9009 179.589 33.9167 179.57 33.9367C179.532 33.9774 179.511 34.031 179.511 34.0867C179.511 34.1424 179.532 34.196 179.57 34.2367C180.695 35.324 182.177 35.9639 183.74 36.0367Z" fill="#263238"/>
<path d="M163.98 34.0966C164.462 34.7842 165.081 35.3642 165.799 35.7997C166.517 36.2352 167.317 36.5168 168.15 36.6266C170.23 36.7966 170.68 34.3766 169.62 32.2266C168.67 30.2966 166.44 27.8666 164.62 28.7066C162.8 29.5466 162.63 32.3266 163.98 34.0966Z" fill="#FFB573"/>
<path d="M176.94 21.6967C176.996 21.6967 177.051 21.6841 177.101 21.6599C177.151 21.6357 177.195 21.6004 177.23 21.5567C177.551 21.1448 177.97 20.8188 178.448 20.6077C178.926 20.3966 179.449 20.3069 179.97 20.3467C180.024 20.3551 180.079 20.3523 180.132 20.3385C180.185 20.3247 180.235 20.3002 180.278 20.2665C180.321 20.2327 180.357 20.1905 180.383 20.1423C180.409 20.0942 180.425 20.0412 180.43 19.9867C180.434 19.8719 180.397 19.7592 180.326 19.6693C180.254 19.5794 180.153 19.5182 180.04 19.4967C179.382 19.4384 178.72 19.544 178.112 19.804C177.505 20.064 176.972 20.4703 176.56 20.9867C176.512 21.0549 176.483 21.1353 176.478 21.2187C176.473 21.3022 176.491 21.3855 176.53 21.4592C176.57 21.533 176.629 21.5942 176.701 21.6362C176.774 21.6781 176.856 21.6991 176.94 21.6967Z" fill="#263238"/>
<path d="M190.15 21.3266C190.203 21.3326 190.257 21.3276 190.309 21.3122C190.36 21.2967 190.408 21.271 190.45 21.2366C190.49 21.1975 190.521 21.1508 190.543 21.0993C190.565 21.0478 190.576 20.9925 190.576 20.9366C190.576 20.8807 190.565 20.8254 190.543 20.7739C190.521 20.7224 190.49 20.6757 190.45 20.6366C190.018 20.0939 189.466 19.6583 188.839 19.3634C188.211 19.0686 187.523 18.9225 186.83 18.9366C186.774 18.9411 186.721 18.9573 186.672 18.9841C186.624 19.011 186.582 19.0479 186.548 19.0924C186.515 19.1369 186.492 19.1879 186.48 19.2421C186.468 19.2963 186.468 19.3524 186.48 19.4066C186.497 19.5196 186.556 19.6222 186.644 19.6943C186.733 19.7664 186.846 19.8029 186.96 19.7966C187.51 19.7907 188.053 19.9112 188.549 20.1487C189.045 20.3862 189.48 20.7345 189.82 21.1666C189.86 21.2159 189.91 21.2559 189.967 21.2835C190.024 21.3112 190.086 21.3259 190.15 21.3266Z" fill="#263238"/>
<path d="M182.46 31.7367C180.35 31.7367 178.52 29.4967 178.32 26.6267C178.199 25.275 178.51 23.9197 179.21 22.7567C179.486 22.2637 179.876 21.844 180.347 21.5326C180.819 21.2211 181.358 21.0271 181.92 20.9667C184.13 20.8167 186.07 23.1067 186.28 26.0767C186.49 29.0467 184.86 31.5767 182.67 31.7267L182.46 31.7367ZM182.13 21.3267H181.95C181.435 21.3857 180.942 21.566 180.511 21.8529C180.08 22.1398 179.723 22.5249 179.47 22.9767C178.806 24.0829 178.512 25.3719 178.63 26.6567C178.82 29.4467 180.63 31.5967 182.63 31.4667C184.63 31.3367 186.14 28.9367 185.95 26.1467C185.76 23.3567 184.08 21.3267 182.13 21.3267Z" fill="white"/>
<path d="M191.81 31.1967C189.7 31.1967 187.86 28.9667 187.66 26.0967C187.544 24.7453 187.855 23.3915 188.55 22.2267C188.828 21.7335 189.22 21.3138 189.693 21.0025C190.166 20.6911 190.707 20.4972 191.27 20.4367C193.46 20.2867 195.42 22.5767 195.62 25.5367C195.736 26.8881 195.425 28.2418 194.73 29.4067C194.453 29.9009 194.061 30.3215 193.588 30.633C193.115 30.9444 192.573 31.1378 192.01 31.1967H191.81ZM191.48 20.7467H191.29C190.775 20.8057 190.282 20.986 189.851 21.2729C189.42 21.5597 189.063 21.9449 188.81 22.3967C188.155 23.5064 187.861 24.7925 187.97 26.0767C188.16 28.7767 189.86 30.8867 191.81 30.8867H191.99C192.505 30.83 192.999 30.6507 193.431 30.3636C193.862 30.0764 194.219 29.69 194.47 29.2367C195.129 28.132 195.422 26.8479 195.31 25.5667C195.12 22.8567 193.42 20.7467 191.48 20.7467Z" fill="white"/>
<path d="M187.89 26.5066C187.863 26.5052 187.837 26.4971 187.815 26.4831C187.792 26.4691 187.773 26.4497 187.76 26.4266C187.38 25.8266 186.27 26.4766 186.26 26.4766C186.243 26.4875 186.224 26.4948 186.204 26.4982C186.184 26.5015 186.164 26.5009 186.144 26.4962C186.125 26.4915 186.106 26.483 186.09 26.471C186.074 26.4591 186.06 26.444 186.05 26.4266C186.024 26.3975 186.01 26.3602 186.01 26.3216C186.01 26.283 186.024 26.2457 186.05 26.2166C186.11 26.2166 187.43 25.3966 187.97 26.2166C187.982 26.2331 187.991 26.2521 187.995 26.2723C187.999 26.2925 187.999 26.3133 187.994 26.3334C187.989 26.3535 187.98 26.3722 187.967 26.3883C187.955 26.4044 187.938 26.4175 187.92 26.4266C187.92 26.4413 187.918 26.4559 187.913 26.4696C187.908 26.4834 187.9 26.496 187.89 26.5066Z" fill="white"/>
<path d="M180.14 25.8566L181.75 25.1466C181.75 25.1466 181.14 26.6166 180.14 25.8566Z" fill="#263238"/>
</svg>
