<svg width="80" height="80" viewBox="0 0 80 80" fill="none" xmlns="http://www.w3.org/2000/svg">
<path d="M10 12.3238L12.4787 16.785C13.02 17.7594 13.812 18.5714 14.7727 19.1366C15.7335 19.702 16.8279 20 17.9425 20H32.5V21.48C31.666 21.7749 30.963 22.3551 30.5155 23.1181C30.0679 23.8811 29.9044 24.7777 30.054 25.6496C30.2036 26.5215 30.6566 27.3125 31.3329 27.8826C32.0092 28.4528 32.8654 28.7655 33.75 28.7655C34.6346 28.7655 35.4908 28.4528 36.1671 27.8826C36.8434 27.3125 37.2964 26.5215 37.446 25.6496C37.5956 24.7777 37.4321 23.8811 36.9845 23.1181C36.537 22.3551 35.834 21.7749 35 21.48V20H49.5575C50.6721 20 51.7665 19.702 52.7272 19.1366C53.6879 18.5714 54.48 17.7594 55.0212 16.785L57.5 12.3238V25H60V6.25C60 5.25544 59.6049 4.30161 58.9016 3.59835C58.1984 2.89509 57.2445 2.5 56.25 2.5H11.25C10.2554 2.5 9.30161 2.89509 8.59835 3.59835C7.89509 4.30161 7.5 5.25544 7.5 6.25V40H10V12.3238ZM33.75 26.25C33.5028 26.25 33.2611 26.1767 33.0555 26.0394C32.85 25.902 32.6897 25.7068 32.5951 25.4784C32.5005 25.25 32.4757 24.9986 32.524 24.7561C32.5722 24.5136 32.6912 24.2909 32.8661 24.1161C33.0409 23.9412 33.2636 23.8222 33.5061 23.774C33.7486 23.7257 34 23.7505 34.2284 23.8451C34.4568 23.9397 34.652 24.1 34.7894 24.3055C34.9267 24.5111 35 24.7528 35 25C35 25.3315 34.8682 25.6495 34.6339 25.8839C34.3995 26.1182 34.0815 26.25 33.75 26.25ZM11.25 5H56.25C56.5815 5 56.8995 5.1317 57.1339 5.36611C57.3682 5.60054 57.5 5.91847 57.5 6.25V7.17625L52.8363 15.5712C52.5114 16.1559 52.0361 16.6431 51.4596 16.9823C50.8831 17.3214 50.2264 17.5001 49.5575 17.5H35V16.02C35.834 15.7251 36.537 15.1449 36.9845 14.3819C37.4321 13.6189 37.5956 12.7222 37.446 11.8503C37.2964 10.9785 36.8434 10.1876 36.1671 9.61736C35.4908 9.04719 34.6346 8.73446 33.75 8.73446C32.8654 8.73446 32.0092 9.04719 31.3329 9.61736C30.6566 10.1876 30.2036 10.9785 30.054 11.8503C29.9044 12.7222 30.0679 13.6189 30.5155 14.3819C30.963 15.1449 31.666 15.7251 32.5 16.02V17.5H17.9425C17.2736 17.5001 16.6169 17.3214 16.0404 16.9823C15.4639 16.6431 14.9886 16.1559 14.6637 15.5712L10 7.17625V6.25C10 5.91847 10.1317 5.60054 10.3661 5.36611C10.6005 5.1317 10.9185 5 11.25 5ZM32.5 12.5C32.5 12.2528 32.5733 12.0111 32.7106 11.8055C32.848 11.6 33.0432 11.4398 33.2716 11.3451C33.5 11.2505 33.7514 11.2258 33.9939 11.274C34.2364 11.3222 34.4591 11.4413 34.6339 11.6161C34.8088 11.7909 34.9278 12.0137 34.976 12.2561C35.0243 12.4986 34.9995 12.75 34.9049 12.9784C34.8103 13.2067 34.65 13.402 34.4445 13.5394C34.2389 13.6768 33.9972 13.75 33.75 13.75C33.4185 13.75 33.1005 13.6182 32.8661 13.3839C32.6318 13.1495 32.5 12.8315 32.5 12.5Z" fill="white"/>
<path d="M77.1338 37.8662L67.1338 27.8662C66.8994 27.6317 66.5815 27.5001 66.25 27.5H43.75C42.7555 27.5 41.8016 27.8951 41.0984 28.5984C40.3951 29.3016 40 30.2555 40 31.25V32.5H42.5V31.25C42.5 30.9185 42.6318 30.6005 42.8661 30.3661C43.1005 30.1318 43.4185 30 43.75 30H65V36.25C65 37.2445 65.3951 38.1984 66.0984 38.9016C66.8016 39.6049 67.7555 40 68.75 40H75V73.75C75 74.0815 74.8682 74.3995 74.6339 74.6339C74.3995 74.8682 74.0815 75 73.75 75H47.5V77.5H73.75C74.7445 77.5 75.6984 77.1049 76.4016 76.4016C77.1049 75.6984 77.5 74.7445 77.5 73.75V38.75C77.4999 38.4185 77.3683 38.1006 77.1338 37.8662ZM67.5 36.25V31.7675L73.2325 37.5H68.75C68.4185 37.5 68.1005 37.3682 67.8661 37.1339C67.6318 36.8995 67.5 36.5815 67.5 36.25Z" fill="white"/>
<path d="M50 32.5H47.5V35H50V32.5Z" fill="white"/>
<path d="M57.5 32.5H52.5V35H57.5V32.5Z" fill="white"/>
<path d="M57.5 37.5H47.5V40H57.5V37.5Z" fill="white"/>
<path d="M70 47.5H62.5V50H70V47.5Z" fill="white"/>
<path d="M70 52.5H62.5V55H70V52.5Z" fill="white"/>
<path d="M70 57.5H62.5V60H70V57.5Z" fill="white"/>
<path d="M70 62.5H62.5V65H70V62.5Z" fill="white"/>
<path d="M70 67.5H62.5V70H70V67.5Z" fill="white"/>
<path d="M58.9526 67.8387L60.0001 56.3638C60.0111 56.2439 60.0043 56.123 59.9801 56.005L58.2813 47.5313C57.9977 46.1135 57.2321 44.8376 56.1143 43.9205C54.9967 43.0032 53.5959 42.5014 52.1501 42.5H51.3876C50.5354 42.4855 49.7027 42.7555 49.0213 43.2674C48.3398 43.7792 47.8484 44.5038 47.6251 45.3263C47.4866 45.8789 47.4756 46.4557 47.5927 47.0132C47.7098 47.5707 47.9521 48.0943 48.3012 48.5445C48.6504 48.9946 49.0972 49.3595 49.6081 49.6117C50.1189 49.8639 50.6804 49.9966 51.2501 50V58.3512C50.0596 57.7995 48.7647 57.5093 47.4526 57.5C45.9484 57.5138 44.4763 57.9364 43.1938 58.7225C42.1034 58.0734 40.8839 57.6715 39.6213 57.545C39.3319 57.5146 39.0411 57.4996 38.7501 57.5H36.2501V56.1475C37.3963 55.4824 38.3993 54.5965 39.2011 53.5414C40.0028 52.4861 40.5876 51.2825 40.9213 50H41.2501C42.2446 50 43.1984 49.6049 43.9017 48.9016C44.6049 48.1984 45.0001 47.2445 45.0001 46.25C45.0001 45.2555 44.6049 44.3016 43.9017 43.5984C43.1984 42.8951 42.2446 42.5 41.2501 42.5V40C41.2501 37.3479 40.1964 34.8042 38.3211 32.9289C36.4458 31.0536 33.9022 30 31.2501 30C28.5979 30 26.0543 31.0536 24.1789 32.9289C22.3036 34.8042 21.2501 37.3479 21.2501 40V42.5C20.2554 42.5 19.3017 42.8951 18.5984 43.5984C17.8952 44.3016 17.5001 45.2555 17.5001 46.25C17.5001 47.2445 17.8952 48.1984 18.5984 48.9016C19.3017 49.6049 20.2554 50 21.2501 50H21.5788C21.9126 51.2825 22.4972 52.4861 23.2991 53.5414C24.1008 54.5965 25.1038 55.4824 26.2501 56.1475V57.5H23.7501C22.1857 57.4979 20.6499 57.9199 19.3063 58.7213C18.0227 57.9359 16.5498 57.5138 15.0451 57.5C13.7324 57.4971 12.4357 57.788 11.2501 58.3512V50C12.0787 49.9859 12.8804 49.7029 13.5342 49.1936C14.1881 48.6842 14.6587 47.9763 14.8751 47.1763C15.0139 46.6235 15.0253 46.0464 14.9084 45.4885C14.7916 44.9308 14.5493 44.4068 14.2001 43.9563C13.8509 43.5059 13.4039 43.1406 12.8928 42.8884C12.3817 42.6361 11.82 42.5033 11.2501 42.5H10.3501C8.90564 42.5028 7.50663 43.0049 6.39026 43.9215C5.2739 44.838 4.50891 46.1125 4.22505 47.5287L2.52505 56C2.49868 56.1194 2.49025 56.2419 2.50005 56.3638L3.54255 67.8387C3.62358 68.7734 4.05345 69.6432 4.74669 70.2754C5.43991 70.9074 6.34569 71.2554 7.2838 71.25H17.5001V76.25C17.5001 76.5815 17.6318 76.8995 17.8662 77.1339C18.1006 77.3682 18.4186 77.5 18.7501 77.5H43.7501C44.0816 77.5 44.3996 77.3682 44.6339 77.1339C44.8683 76.8995 45.0001 76.5815 45.0001 76.25V71.25H55.2163C56.1536 71.2541 57.0581 70.9056 57.7503 70.2736C58.4424 69.6416 58.8716 68.7725 58.9526 67.8387ZM50.3613 47.1175C50.2072 46.9675 50.0964 46.7788 50.0406 46.5711C49.9847 46.3635 49.9858 46.1446 50.0438 45.9375C50.1346 45.6559 50.3151 45.4118 50.5577 45.2424C50.8004 45.0731 51.0919 44.9879 51.3876 45H52.1501C53.0169 45.0021 53.8564 45.304 54.5263 45.8545C55.1961 46.4049 55.6549 47.17 55.8251 48.02L56.2213 50H53.7501V48.75C53.7501 48.4185 53.6183 48.1005 53.3839 47.8661C53.1496 47.6318 52.8316 47.5 52.5001 47.5H51.2501C51.0837 47.5004 50.9189 47.4666 50.7661 47.4009C50.6132 47.335 50.4754 47.2386 50.3613 47.1175ZM37.6551 60L36.7801 62.1912L34.6388 61.4787L34.1801 60.5587L35.2951 60H37.6551ZM32.2288 62.25L31.2501 63.2325L30.2713 62.2538L30.7713 61.2537H31.7263L32.2288 62.25ZM30.5963 66.0325C30.7859 66.1714 31.0149 66.2464 31.2501 66.2464C31.4852 66.2464 31.7142 66.1714 31.9038 66.0325L33.5063 75H29.0001L30.5963 66.0325ZM42.5001 46.25C42.5001 46.5815 42.3683 46.8995 42.1339 47.1339C41.8996 47.3682 41.5816 47.5 41.2501 47.5V45C41.5816 45 41.8996 45.1318 42.1339 45.3661C42.3683 45.6005 42.5001 45.9185 42.5001 46.25ZM31.2501 32.5C33.2386 32.502 35.1451 33.2927 36.5512 34.6989C37.9573 36.105 38.7481 38.0115 38.7501 40V41.2125C38.2727 41.1301 37.8296 40.9109 37.4744 40.5813C37.1194 40.2517 36.8677 39.8261 36.7501 39.3563L36.2101 37.1975C36.1341 36.904 35.9538 36.6481 35.7032 36.4775C35.4526 36.307 35.1484 36.2334 34.8474 36.2704C34.5466 36.3074 34.2693 36.4525 34.0674 36.6788C33.8656 36.9049 33.7527 37.1968 33.7501 37.5C33.7501 38.4945 33.3549 39.4484 32.6517 40.1516C31.9484 40.8549 30.9946 41.25 30.0001 41.25H23.7501V40C23.7521 38.0115 24.5428 36.105 25.9489 34.6989C27.3551 33.2927 29.2616 32.502 31.2501 32.5ZM20.0001 46.25C20.0001 45.9185 20.1317 45.6005 20.3662 45.3661C20.6006 45.1318 20.9186 45 21.2501 45V47.5C20.9186 47.5 20.6006 47.3682 20.3662 47.1339C20.1317 46.8995 20.0001 46.5815 20.0001 46.25ZM23.7501 47.5V43.75H30.0001C30.9463 43.7496 31.8801 43.5345 32.7311 43.1208C33.5821 42.7069 34.3279 42.1054 34.9126 41.3613C35.3221 42.0284 35.8828 42.5897 36.5494 42.9999C37.2162 43.4101 37.9699 43.6576 38.7501 43.7225V47.5C38.7501 49.4891 37.9599 51.3967 36.5533 52.8032C35.1468 54.2099 33.2392 55 31.2501 55C29.2609 55 27.3533 54.2099 25.9468 52.8032C24.5402 51.3967 23.7501 49.4891 23.7501 47.5ZM31.2501 57.5C32.0939 57.497 32.9341 57.3865 33.7501 57.1712V57.9775L32.2051 58.75H30.2951L28.7501 57.9775V57.1712C29.5661 57.3865 30.4062 57.497 31.2501 57.5ZM27.2051 60L28.3226 60.5587L27.8638 61.4787L25.7226 62.1912L24.8451 60H27.2051ZM10.3501 45H11.2501C11.4165 44.9996 11.5812 45.0334 11.7341 45.0991C11.8869 45.165 12.0247 45.2614 12.1388 45.3825C12.2929 45.5325 12.4037 45.7212 12.4596 45.9289C12.5154 46.1365 12.5143 46.3554 12.4563 46.5625C12.3656 46.8441 12.1851 47.0882 11.9424 47.2576C11.6997 47.4269 11.4082 47.5121 11.1126 47.5H10.0001C9.66854 47.5 9.35059 47.6318 9.11618 47.8661C8.88175 48.1005 8.75005 48.4185 8.75005 48.75V50H6.2788L6.6763 48.0175C6.8456 47.1675 7.30414 46.4024 7.9739 45.8523C8.64366 45.3021 9.48333 45.0009 10.3501 45ZM18.7501 68.75H7.2838C6.97089 68.7513 6.66888 68.6351 6.43744 68.4245C6.20599 68.2139 6.06196 67.9241 6.0338 67.6125L5.0063 56.3175L5.77755 52.5H8.75005V60.675C8.75009 60.9165 8.82008 61.1528 8.95154 61.3554C9.083 61.5579 9.27033 61.718 9.49086 61.8164C9.71139 61.9147 9.9557 61.9471 10.1942 61.9096C10.4328 61.8721 10.6554 61.7663 10.8351 61.605C11.9739 60.5753 13.4536 60.0036 14.9888 60H15.0276C16.3026 60.0175 17.5378 60.4468 18.5488 61.2238C18.7646 61.3845 19.0266 61.4714 19.2957 61.4714C19.5648 61.4714 19.8267 61.3845 20.0426 61.2238C20.6998 60.7436 21.4446 60.3967 22.2351 60.2025L23.8401 64.21C23.9588 64.5055 24.1858 64.7446 24.4748 64.8784C24.7638 65.0122 25.0929 65.0306 25.3951 64.93L28.4126 63.93L28.4301 63.9475L26.4538 75H20.0001V70C20.0001 69.6685 19.8683 69.3505 19.6339 69.1161C19.3996 68.8818 19.0816 68.75 18.7501 68.75ZM43.7501 68.75C43.4186 68.75 43.1006 68.8818 42.8662 69.1161C42.6317 69.3505 42.5001 69.6685 42.5001 70V75H36.0463L34.0701 63.9475L34.0876 63.93L37.1051 64.93C37.4072 65.0306 37.7363 65.0122 38.0253 64.8784C38.3143 64.7446 38.5413 64.5055 38.6601 64.21L40.2701 60.19C41.0589 60.3894 41.8016 60.7405 42.4563 61.2238C42.6727 61.386 42.9358 61.4738 43.2063 61.4738C43.4768 61.4738 43.7399 61.386 43.9563 61.2238C44.9656 60.4479 46.1984 60.0187 47.4713 60C49.0167 60.0135 50.5054 60.5833 51.6651 61.605C51.8448 61.7663 52.0673 61.8721 52.3058 61.9096C52.5444 61.9471 52.7887 61.9147 53.0092 61.8164C53.2298 61.718 53.4171 61.5579 53.5486 61.3554C53.6801 61.1528 53.7501 60.9165 53.7501 60.675V52.5H56.7226L57.4888 56.3175L56.4613 67.6125C56.4332 67.9241 56.2891 68.2139 56.0577 68.4245C55.8262 68.6351 55.5242 68.7513 55.2113 68.75H43.7501Z" fill="white"/>
<path d="M28.75 45H26.25V47.5H28.75V45Z" fill="white"/>
<path d="M36.25 45H33.75V47.5H36.25V45Z" fill="white"/>
</svg>
