<?xml version="1.0" encoding="UTF-8" standalone="no"?> <svg width="64" height="64" viewBox="0 0 64 64" fill="none" xmlns="http://www.w3.org/2000/svg">
<path d="M8 9.859L9.983 13.428C10.416 14.2075 11.0496 14.8571 11.8182 15.3093C12.5868 15.7616 13.4623 16 14.354 16H26V17.184C25.3328 17.4199 24.7704 17.8841 24.4124 18.4945C24.0543 19.1049 23.9235 19.8222 24.0432 20.5197C24.1629 21.2172 24.5253 21.85 25.0663 22.3061C25.6074 22.7622 26.2923 23.0124 27 23.0124C27.7077 23.0124 28.3926 22.7622 28.9337 22.3061C29.4747 21.85 29.8371 21.2172 29.9568 20.5197C30.0765 19.8222 29.9457 19.1049 29.5876 18.4945C29.2296 17.8841 28.6672 17.4199 28 17.184V16H39.646C40.5377 16 41.4132 15.7616 42.1818 15.3093C42.9503 14.8571 43.584 14.2075 44.017 13.428L46 9.859V20H48V5C48 4.20435 47.6839 3.44129 47.1213 2.87868C46.5587 2.31607 45.7956 2 45 2H9C8.20435 2 7.44129 2.31607 6.87868 2.87868C6.31607 3.44129 6 4.20435 6 5V32H8V9.859ZM27 21C26.8022 21 26.6089 20.9414 26.4444 20.8315C26.28 20.7216 26.1518 20.5654 26.0761 20.3827C26.0004 20.2 25.9806 19.9989 26.0192 19.8049C26.0578 19.6109 26.153 19.4327 26.2929 19.2929C26.4327 19.153 26.6109 19.0578 26.8049 19.0192C26.9989 18.9806 27.2 19.0004 27.3827 19.0761C27.5654 19.1518 27.7216 19.28 27.8315 19.4444C27.9414 19.6089 28 19.8022 28 20C28 20.2652 27.8946 20.5196 27.7071 20.7071C27.5196 20.8946 27.2652 21 27 21ZM9 4H45C45.2652 4 45.5196 4.10536 45.7071 4.29289C45.8946 4.48043 46 4.73478 46 5V5.741L42.269 12.457C42.0091 12.9247 41.6289 13.3145 41.1677 13.5858C40.7065 13.8571 40.1811 14.0001 39.646 14H28V12.816C28.6672 12.5801 29.2296 12.1159 29.5876 11.5055C29.9457 10.8951 30.0765 10.1778 29.9568 9.48027C29.8371 8.78277 29.4747 8.15004 28.9337 7.69389C28.3926 7.23775 27.7077 6.98757 27 6.98757C26.2923 6.98757 25.6074 7.23775 25.0663 7.69389C24.5253 8.15004 24.1629 8.78277 24.0432 9.48027C23.9235 10.1778 24.0543 10.8951 24.4124 11.5055C24.7704 12.1159 25.3328 12.5801 26 12.816V14H14.354C13.8189 14.0001 13.2935 13.8571 12.8323 13.5858C12.3711 13.3145 11.9909 12.9247 11.731 12.457L8 5.741V5C8 4.73478 8.10536 4.48043 8.29289 4.29289C8.48043 4.10536 8.73478 4 9 4V4ZM26 10C26 9.80222 26.0586 9.60888 26.1685 9.44443C26.2784 9.27998 26.4346 9.15181 26.6173 9.07612C26.8 9.00043 27.0011 8.98063 27.1951 9.01921C27.3891 9.0578 27.5673 9.15304 27.7071 9.29289C27.847 9.43275 27.9422 9.61093 27.9808 9.80491C28.0194 9.99889 27.9996 10.2 27.9239 10.3827C27.8482 10.5654 27.72 10.7216 27.5556 10.8315C27.3911 10.9414 27.1978 11 27 11C26.7348 11 26.4804 10.8946 26.2929 10.7071C26.1054 10.5196 26 10.2652 26 10Z" fill="black"/>
<path d="M61.707 30.293L53.707 22.293C53.5195 22.1054 53.2652 22.0001 53 22H35C34.2044 22 33.4413 22.3161 32.8787 22.8787C32.3161 23.4413 32 24.2044 32 25V26H34V25C34 24.7348 34.1054 24.4804 34.2929 24.2929C34.4804 24.1054 34.7348 24 35 24H52V29C52 29.7956 52.3161 30.5587 52.8787 31.1213C53.4413 31.6839 54.2044 32 55 32H60V59C60 59.2652 59.8946 59.5196 59.7071 59.7071C59.5196 59.8946 59.2652 60 59 60H38V62H59C59.7956 62 60.5587 61.6839 61.1213 61.1213C61.6839 60.5587 62 59.7956 62 59V31C61.9999 30.7348 61.8946 30.4805 61.707 30.293ZM54 29V25.414L58.586 30H55C54.7348 30 54.4804 29.8946 54.2929 29.7071C54.1054 29.5196 54 29.2652 54 29Z" fill="black"/>
<path d="M40 26H38V28H40V26Z" fill="black"/>
<path d="M46 26H42V28H46V26Z" fill="black"/>
<path d="M46 30H38V32H46V30Z" fill="black"/>
<path d="M56 38H50V40H56V38Z" fill="black"/>
<path d="M56 42H50V44H56V42Z" fill="black"/>
<path d="M56 46H50V48H56V46Z" fill="black"/>
<path d="M56 50H50V52H56V50Z" fill="black"/>
<path d="M56 54H50V56H56V54Z" fill="black"/>
<path d="M47.162 54.271L48 45.091C48.0088 44.9951 48.0034 44.8984 47.984 44.804L46.625 38.025C46.3981 36.8908 45.7856 35.8701 44.8914 35.1364C43.9973 34.4026 42.8767 34.0011 41.72 34H41.11C40.4283 33.9884 39.7621 34.2044 39.217 34.6139C38.6718 35.0234 38.2787 35.603 38.1 36.261C37.9892 36.7031 37.9804 37.1646 38.0741 37.6106C38.1678 38.0566 38.3616 38.4754 38.6409 38.8356C38.9203 39.1957 39.2777 39.4876 39.6864 39.6894C40.0951 39.8911 40.5443 39.9973 41 40V46.681C40.0476 46.2396 39.0117 46.0074 37.962 46C36.7587 46.011 35.581 46.3491 34.555 46.978C33.6827 46.4587 32.7071 46.1372 31.697 46.036C31.4655 46.0117 31.2328 45.9997 31 46H29V44.918C29.917 44.3859 30.7194 43.6772 31.3608 42.8331C32.0022 41.9889 32.47 41.026 32.737 40H33C33.7956 40 34.5587 39.6839 35.1213 39.1213C35.6839 38.5587 36 37.7956 36 37C36 36.2044 35.6839 35.4413 35.1213 34.8787C34.5587 34.3161 33.7956 34 33 34V32C33 29.8783 32.1571 27.8434 30.6568 26.3431C29.1566 24.8429 27.1217 24 25 24C22.8783 24 20.8434 24.8429 19.3431 26.3431C17.8428 27.8434 17 29.8783 17 32V34C16.2043 34 15.4413 34.3161 14.8787 34.8787C14.3161 35.4413 14 36.2044 14 37C14 37.7956 14.3161 38.5587 14.8787 39.1213C15.4413 39.6839 16.2043 40 17 40H17.263C17.53 41.026 17.9977 41.9889 18.6392 42.8331C19.2806 43.6772 20.083 44.3859 21 44.918V46H19C17.7485 45.9983 16.5199 46.3359 15.445 46.977C14.4181 46.3487 13.2398 46.011 12.036 46C10.9859 45.9977 9.94854 46.2304 8.99999 46.681V40C9.66293 39.9887 10.3043 39.7623 10.8273 39.3549C11.3504 38.9474 11.7269 38.381 11.9 37.741C12.0111 37.2988 12.0202 36.8371 11.9267 36.3908C11.8332 35.9446 11.6394 35.5254 11.36 35.165C11.0807 34.8047 10.7231 34.5125 10.3142 34.3107C9.90534 34.1089 9.45595 34.0026 8.99999 34H8.27999C7.12446 34.0022 6.00525 34.4039 5.11216 35.1372C4.21907 35.8704 3.60708 36.89 3.37999 38.023L2.01999 44.8C1.99889 44.8955 1.99215 44.9935 1.99999 45.091L2.83399 54.271C2.89881 55.0187 3.24271 55.7146 3.7973 56.2203C4.35188 56.7259 5.0765 57.0043 5.82699 57H14V61C14 61.2652 14.1054 61.5196 14.2929 61.7071C14.4804 61.8946 14.7348 62 15 62H35C35.2652 62 35.5196 61.8946 35.7071 61.7071C35.8946 61.5196 36 61.2652 36 61V57H44.173C44.9228 57.0033 45.6464 56.7245 46.2002 56.2189C46.7539 55.7133 47.0972 55.018 47.162 54.271V54.271ZM40.289 37.694C40.1657 37.574 40.0771 37.423 40.0324 37.2569C39.9877 37.0908 39.9886 36.9157 40.035 36.75C40.1076 36.5247 40.252 36.3294 40.4461 36.1939C40.6403 36.0585 40.8735 35.9903 41.11 36H41.72C42.4135 36.0017 43.0851 36.2432 43.621 36.6836C44.1568 37.1239 44.5239 37.736 44.66 38.416L44.977 40H43V39C43 38.7348 42.8946 38.4804 42.7071 38.2929C42.5196 38.1054 42.2652 38 42 38H41C40.8669 38.0003 40.7351 37.9733 40.6128 37.9207C40.4905 37.868 40.3803 37.7909 40.289 37.694V37.694ZM30.124 48L29.424 49.753L27.711 49.183L27.344 48.447L28.236 48H30.124ZM25.783 49.8L25 50.586L24.217 49.803L24.617 49.003H25.381L25.783 49.8ZM24.477 52.826C24.6287 52.9371 24.8119 52.9971 25 52.9971C25.1881 52.9971 25.3713 52.9371 25.523 52.826L26.805 60H23.2L24.477 52.826ZM34 37C34 37.2652 33.8946 37.5196 33.7071 37.7071C33.5196 37.8946 33.2652 38 33 38V36C33.2652 36 33.5196 36.1054 33.7071 36.2929C33.8946 36.4804 34 36.7348 34 37ZM25 26C26.5908 26.0016 28.116 26.6342 29.2409 27.7591C30.3658 28.884 30.9984 30.4092 31 32V32.97C30.6181 32.9041 30.2636 32.7287 29.9795 32.465C29.6955 32.2014 29.4941 31.8609 29.4 31.485L28.968 29.758C28.9072 29.5232 28.763 29.3185 28.5625 29.182C28.362 29.0456 28.1187 28.9867 27.8779 29.0163C27.6372 29.0459 27.4154 29.162 27.2539 29.343C27.0924 29.5239 27.0021 29.7574 27 30C27 30.7956 26.6839 31.5587 26.1213 32.1213C25.5587 32.6839 24.7956 33 24 33H19V32C19.0016 30.4092 19.6342 28.884 20.7591 27.7591C21.884 26.6342 23.4092 26.0016 25 26ZM16 37C16 36.7348 16.1053 36.4804 16.2929 36.2929C16.4804 36.1054 16.7348 36 17 36V38C16.7348 38 16.4804 37.8946 16.2929 37.7071C16.1053 37.5196 16 37.2652 16 37ZM19 38V35H24C24.757 34.9997 25.504 34.8276 26.1848 34.4966C26.8656 34.1655 27.4623 33.6843 27.93 33.089C28.2576 33.6227 28.7062 34.0718 29.2395 34.3999C29.7729 34.7281 30.3759 34.9261 31 34.978V38C31 39.5913 30.3679 41.1174 29.2426 42.2426C28.1174 43.3679 26.5913 44 25 44C23.4087 44 21.8826 43.3679 20.7574 42.2426C19.6321 41.1174 19 39.5913 19 38V38ZM25 46C25.6751 45.9976 26.3472 45.9092 27 45.737V46.382L25.764 47H24.236L23 46.382V45.737C23.6528 45.9092 24.3249 45.9976 25 46V46ZM21.764 48L22.658 48.447L22.291 49.183L20.578 49.753L19.876 48H21.764ZM8.27999 36H8.99999C9.13313 35.9997 9.26491 36.0267 9.3872 36.0793C9.50949 36.132 9.61969 36.2091 9.71099 36.306C9.83427 36.426 9.92292 36.577 9.96762 36.7431C10.0123 36.9092 10.0114 37.0843 9.96499 37.25C9.8924 37.4753 9.74799 37.6706 9.55384 37.8061C9.3597 37.9415 9.12652 38.0097 8.88999 38H7.99999C7.73478 38 7.48042 38.1054 7.29289 38.2929C7.10535 38.4804 6.99999 38.7348 6.99999 39V40H5.02299L5.34099 38.414C5.47643 37.734 5.84326 37.1219 6.37907 36.6818C6.91488 36.2417 7.58661 36.0007 8.27999 36V36ZM15 55H5.82699C5.57666 55.001 5.33505 54.9081 5.1499 54.7396C4.96474 54.5711 4.84952 54.3393 4.82699 54.09L4.00499 45.054L4.62199 42H6.99999V48.54C7.00002 48.7332 7.05601 48.9222 7.16118 49.0843C7.26635 49.2463 7.41621 49.3744 7.59264 49.4531C7.76906 49.5318 7.96451 49.5577 8.15534 49.5277C8.34618 49.4977 8.52424 49.413 8.66799 49.284C9.57904 48.4602 10.7628 48.0029 11.991 48H12.022C13.042 48.014 14.0302 48.3574 14.839 48.979C15.0116 49.1076 15.2212 49.1771 15.4365 49.1771C15.6518 49.1771 15.8613 49.1076 16.034 48.979C16.5598 48.5949 17.1556 48.3174 17.788 48.162L19.072 51.368C19.167 51.6044 19.3486 51.7957 19.5798 51.9027C19.811 52.0098 20.0743 52.0245 20.316 51.944L22.73 51.144L22.744 51.158L21.163 60H16V56C16 55.7348 15.8946 55.4804 15.7071 55.2929C15.5196 55.1054 15.2652 55 15 55ZM35 55C34.7348 55 34.4804 55.1054 34.2929 55.2929C34.1053 55.4804 34 55.7348 34 56V60H28.837L27.256 51.158L27.27 51.144L29.684 51.944C29.9257 52.0245 30.189 52.0098 30.4202 51.9027C30.6514 51.7957 30.833 51.6044 30.928 51.368L32.216 48.152C32.8471 48.3115 33.4412 48.5924 33.965 48.979C34.1381 49.1088 34.3486 49.179 34.565 49.179C34.7814 49.179 34.9919 49.1088 35.165 48.979C35.9724 48.3583 36.9587 48.015 37.977 48C39.2133 48.0108 40.4043 48.4666 41.332 49.284C41.4758 49.413 41.6538 49.4977 41.8446 49.5277C42.0355 49.5577 42.2309 49.5318 42.4073 49.4531C42.5838 49.3744 42.7336 49.2463 42.8388 49.0843C42.944 48.9222 43 48.7332 43 48.54V42H45.378L45.991 45.054L45.169 54.09C45.1465 54.3393 45.0312 54.5711 44.8461 54.7396C44.6609 54.9081 44.4193 55.001 44.169 55H35Z" fill="black"/>
<path d="M23 36H21V38H23V36Z" fill="black"/>
<path d="M29 36H27V38H29V36Z" fill="black"/>
</svg>
