<svg width="80" height="80" viewBox="0 0 80 80" fill="none" xmlns="http://www.w3.org/2000/svg">
<g clip-path="url(#clip0_20_575)">
<path d="M13.3381 70.4894C13.3381 70.2407 13.2393 70.0023 13.0635 69.8265C12.8877 69.6507 12.6492 69.5519 12.4006 69.5519C12.1519 69.5519 11.9135 69.6507 11.7377 69.8265C11.5619 70.0023 11.4631 70.2407 11.4631 70.4894C11.4631 70.9253 11.3498 71.2513 11.1265 71.448C10.8747 71.67 10.4523 71.7895 9.86091 71.7895C9.29638 71.7996 8.74614 71.6117 8.30577 71.2583C8.13754 71.1273 8.00019 70.9609 7.90347 70.7709C7.80675 70.5809 7.75301 70.372 7.74608 70.1589V54.5938C7.74608 54.3451 7.64731 54.1067 7.4715 53.9308C7.29568 53.755 7.05723 53.6562 6.80859 53.6562C6.55995 53.6562 6.32149 53.755 6.14568 53.9308C5.96987 54.1067 5.87109 54.3451 5.87109 54.5938V70.1583C5.87797 70.6445 5.99218 71.1233 6.20557 71.5602C6.41895 71.9972 6.72624 72.3817 7.10546 72.6861C7.88138 73.3247 8.8568 73.6707 9.8617 73.6639C10.9293 73.6639 11.7679 73.3803 12.3654 72.8536C13.0117 72.2844 13.3392 71.4814 13.3392 70.4888L13.3381 70.4894Z" fill="white"/>
<path d="M10.3782 33.5025H2.31342C2.19721 33.5027 2.08581 33.549 2.00363 33.6311C1.92145 33.7133 1.8752 33.8247 1.87499 33.9409V55.1094C1.87499 56.8709 4.0092 57.7319 5.2395 56.5016C5.42306 56.3191 5.5688 56.1022 5.66836 55.8633C5.76791 55.6244 5.81933 55.3682 5.81965 55.1094V39.8867C5.81965 39.6381 5.91843 39.3996 6.09424 39.2238C6.27005 39.048 6.50851 38.9492 6.75715 38.9492C7.00579 38.9492 7.24424 39.048 7.42006 39.2238C7.59587 39.3996 7.69464 39.6381 7.69464 39.8867V55.1094C7.69466 55.6146 7.59491 56.1148 7.4011 56.5814C7.20729 57.0479 6.92325 57.4716 6.56527 57.8281C4.16873 60.2239 0 58.5477 0 55.1094V33.9409C0.00214153 33.328 0.246586 32.7408 0.680007 32.3074C1.11343 31.874 1.70065 31.6296 2.31358 31.6275H29.5395C30.0176 31.6276 30.4909 31.722 30.9324 31.9054C31.3739 32.0889 31.7748 32.3577 32.1122 32.6964C32.1317 32.7159 32.1501 32.7363 32.1675 32.7569C32.6595 33.272 32.9896 33.9203 33.1167 34.6212C33.2439 35.3222 33.1625 36.0451 32.8827 36.7002C32.6029 37.3554 32.137 37.914 31.5427 38.3069C30.9484 38.6997 30.2519 38.9096 29.5395 38.9103H14.111C13.8624 38.9103 13.6239 38.8115 13.4481 38.6357C13.2723 38.4599 13.1735 38.2215 13.1735 37.9728C13.1735 37.7242 13.2723 37.4857 13.4481 37.3099C13.6239 37.1341 13.8624 37.0353 14.111 37.0353H29.5395C29.8841 37.0356 30.2213 36.935 30.5094 36.746C30.7976 36.557 31.0241 36.2877 31.1611 35.9715C31.2981 35.6553 31.3395 35.3059 31.2803 34.9664C31.2211 34.6269 31.0639 34.3121 30.8279 34.0609C30.8139 34.0484 30.8003 34.0356 30.7869 34.0222C30.6234 33.8578 30.4292 33.7272 30.2152 33.638C30.0013 33.5489 29.7718 33.5028 29.54 33.5025H10.3782Z" fill="white"/>
<path d="M18.8764 37.9728C18.8764 37.7241 18.7776 37.4857 18.6018 37.3099C18.426 37.134 18.1875 37.0353 17.9389 37.0353C17.6902 37.0353 17.4518 37.134 17.276 37.3099C17.1002 37.4857 17.0014 37.7241 17.0014 37.9728V69.7306C17.0056 70.277 16.8016 70.8045 16.4308 71.2059C16.2646 71.3877 16.0628 71.5333 15.838 71.6337C15.6131 71.7342 15.37 71.7872 15.1237 71.7897C14.8775 71.7872 14.6344 71.7342 14.4095 71.6337C14.1847 71.5333 13.9829 71.3877 13.8167 71.2059C13.4459 70.8045 13.2419 70.277 13.2461 69.7306V55.4323C13.2461 55.1837 13.1473 54.9452 12.9715 54.7694C12.7957 54.5936 12.5572 54.4948 12.3086 54.4948C12.06 54.4948 11.8215 54.5936 11.6457 54.7694C11.4699 54.9452 11.3711 55.1837 11.3711 55.4323V69.7304C11.3685 70.7538 11.7558 71.7397 12.4544 72.4876C12.7946 72.8565 13.2073 73.1514 13.6665 73.3539C14.1257 73.5564 14.6217 73.6621 15.1236 73.6645C15.6255 73.6621 16.1215 73.5564 16.5808 73.3539C17.04 73.1515 17.4527 72.8566 17.7929 72.4876C18.4915 71.7397 18.8788 70.7538 18.8762 69.7304L18.8764 37.9728Z" fill="white"/>
<path d="M11.2508 18.8198C12.6303 18.8198 13.9671 19.298 15.0334 20.1731C16.0998 21.0482 16.8298 22.266 17.0989 23.6189C17.3681 24.9719 17.1598 26.3763 16.5095 27.5929C15.8593 28.8095 14.8073 29.763 13.5329 30.2909C12.2585 30.8188 10.8404 30.8885 9.52034 30.4881C8.20028 30.0877 7.05989 29.242 6.29349 28.095C5.52709 26.948 5.18209 25.5708 5.31729 24.198C5.45248 22.8251 6.0595 21.5417 7.03492 20.5662C7.58797 20.0118 8.24512 19.5721 8.96862 19.2724C9.69212 18.9727 10.4677 18.8189 11.2508 18.8198ZM14.1414 21.892C13.4728 21.2234 12.593 20.8073 11.652 20.7147C10.711 20.622 9.76699 20.8585 8.98078 21.3838C8.19457 21.9091 7.61482 22.6908 7.34032 23.5956C7.06581 24.5005 7.11353 25.4725 7.47534 26.3461C7.83715 27.2197 8.49067 27.9408 9.32456 28.3866C10.1584 28.8324 11.1211 28.9753 12.0485 28.7909C12.9759 28.6065 13.8107 28.1062 14.4106 27.3754C15.0106 26.6445 15.3385 25.7282 15.3386 24.7826C15.3392 24.2456 15.2337 23.7138 15.028 23.2177C14.8224 22.7216 14.5207 22.2711 14.1403 21.892H14.1414Z" fill="white"/>
<path d="M37.2568 6.33575H76.1411C76.3898 6.33575 76.6282 6.43453 76.804 6.61034C76.9799 6.78616 77.0786 7.02461 77.0786 7.27325V39.1061C77.0786 39.3547 76.9799 39.5932 76.804 39.769C76.6282 39.9448 76.3898 40.0436 76.1411 40.0436H37.2568C37.0082 40.0436 36.7697 39.9448 36.5939 39.769C36.4181 39.5932 36.3193 39.3547 36.3193 39.1061V7.27325C36.3193 7.02461 36.4181 6.78616 36.5939 6.61034C36.7697 6.43453 37.0082 6.33575 37.2568 6.33575ZM75.2036 8.21075H38.1943V38.1686H75.2036V8.21075Z" fill="white"/>
<path d="M37.0802 38.1684H76.6201C77.0639 38.1684 77.5033 38.2561 77.9131 38.4264C78.3229 38.5966 78.6951 38.8461 79.0082 39.1606C79.0277 39.1801 79.0462 39.2006 79.0637 39.2214C79.6639 39.8475 79.9993 40.6812 79.9998 41.5486V42.1031C79.9994 42.5462 79.9117 42.985 79.7415 43.3941C79.5713 43.8033 79.322 44.1748 79.0079 44.4875L78.3449 43.8283L79.0081 44.4909C78.9885 44.5104 78.9682 44.5289 78.9473 44.5464C78.321 45.147 77.4869 45.4826 76.6192 45.4829H37.0802C36.637 45.4826 36.1983 45.3948 35.7891 45.2246C35.38 45.0544 35.0084 44.8051 34.6958 44.4911L35.355 43.8281L34.6924 44.4912C34.6728 44.4717 34.6544 44.4514 34.6368 44.4304C34.0361 43.8042 33.7005 42.9701 33.7002 42.1023V41.5478C33.7005 41.1046 33.7883 40.6659 33.9585 40.2567C34.1287 39.8476 34.378 39.476 34.6921 39.1634V39.16C35.0052 38.8455 35.3773 38.596 35.7871 38.4258C36.1969 38.2555 36.6363 38.1678 37.08 38.1678L37.0802 38.1684ZM76.6201 40.0434H37.0802C36.8826 40.0436 36.6871 40.0829 36.5047 40.1589C36.3224 40.2349 36.1569 40.3462 36.0177 40.4864L36.0158 40.4845C35.7336 40.7668 35.575 41.1495 35.5749 41.5486V42.1031C35.5749 42.4841 35.7195 42.8508 35.9794 43.1293L36.0174 43.1651L36.0155 43.167C36.2977 43.4492 36.6805 43.6078 37.0796 43.6079H76.6201C77.0011 43.6079 77.3678 43.4633 77.6463 43.2034L77.6821 43.1654L77.684 43.1673C77.9661 42.885 78.1247 42.5022 78.1248 42.1031V41.5486C78.1248 41.1679 77.9805 40.8013 77.7209 40.5228L77.6821 40.4862C77.5429 40.3461 77.3774 40.2348 77.1951 40.1588C77.0127 40.0827 76.8172 40.0435 76.6196 40.0433L76.6201 40.0434Z" fill="white"/>
<path d="M49.2524 44.8281C49.3272 44.5921 49.3051 44.336 49.1911 44.1162C49.0771 43.8965 48.8805 43.731 48.6444 43.6562C48.4084 43.5814 48.1524 43.6035 47.9326 43.7175C47.7128 43.8315 47.5474 44.0282 47.4726 44.2642L39.4137 69.4731C39.3767 69.5899 39.363 69.713 39.3736 69.8351C39.3841 69.9572 39.4185 70.0761 39.475 70.1849C39.5314 70.2937 39.6088 70.3904 39.7026 70.4693C39.7964 70.5482 39.9048 70.6079 40.0217 70.645C40.1385 70.682 40.2616 70.6956 40.3837 70.6851C40.5058 70.6746 40.6247 70.6401 40.7335 70.5837C40.8423 70.5272 40.939 70.4499 41.0179 70.3561C41.0968 70.2623 41.1565 70.1539 41.1935 70.037L49.2524 44.8281Z" fill="white"/>
<path d="M57.7833 44.5458C57.7833 44.2981 57.6849 44.0606 57.5097 43.8855C57.3346 43.7103 57.0971 43.6119 56.8494 43.6119C56.6018 43.6119 56.3642 43.7103 56.1891 43.8855C56.014 44.0606 55.9156 44.2981 55.9156 44.5458L55.8901 70.1581C55.8901 70.4058 55.9885 70.6433 56.1636 70.8184C56.3388 70.9936 56.5763 71.0919 56.824 71.0919C57.0716 71.0919 57.3091 70.9936 57.4843 70.8184C57.6594 70.6433 57.7578 70.4058 57.7578 70.1581L57.7833 44.5458Z" fill="white"/>
<path d="M64.7653 44.1695C64.6905 43.9335 64.5251 43.7368 64.3053 43.6228C64.0855 43.5088 63.8295 43.4868 63.5935 43.5615C63.3574 43.6363 63.1608 43.8018 63.0468 44.0216C62.9328 44.2413 62.9107 44.4974 62.9855 44.7334L71.045 69.9426C71.082 70.0595 71.1417 70.1679 71.2206 70.2617C71.2995 70.3555 71.3962 70.4329 71.505 70.4893C71.6138 70.5458 71.7327 70.5802 71.8548 70.5908C71.977 70.6013 72.1 70.5876 72.2168 70.5506C72.3337 70.5136 72.4421 70.4539 72.5359 70.375C72.6297 70.296 72.7071 70.1994 72.7635 70.0906C72.82 69.9818 72.8545 69.8629 72.865 69.7408C72.8755 69.6186 72.8618 69.4956 72.8248 69.3787L64.7653 44.1695Z" fill="white"/>
<path d="M45.8191 9.08044H67.8804C68.2277 9.08073 68.5715 9.14955 68.8922 9.28297C69.2129 9.41638 69.5041 9.61178 69.7491 9.85794L69.0899 10.5209L69.7525 9.85779C69.7734 9.87862 69.7927 9.89977 69.8105 9.92123C70.2726 10.4103 70.5303 11.0576 70.5308 11.7304V15.1562C70.5308 15.5041 70.4621 15.8486 70.3287 16.1699C70.1952 16.4912 69.9997 16.783 69.7532 17.0286C69.7325 17.0492 69.7111 17.0686 69.6891 17.087C69.1998 17.548 68.5531 17.8051 67.8808 17.8058H45.8191C45.1167 17.8044 44.4435 17.5249 43.9468 17.0283C43.4501 16.5317 43.1704 15.8586 43.1689 15.1562V11.7304C43.1694 11.3826 43.2385 11.0383 43.3723 10.7172C43.506 10.3961 43.7018 10.1046 43.9485 9.85935L43.9466 9.85748C44.1922 9.61124 44.4839 9.41587 44.8051 9.28256C45.1262 9.14925 45.4706 9.08062 45.8183 9.0806L45.8191 9.08044ZM67.8804 10.9554H45.8191C45.7174 10.9557 45.6167 10.976 45.5229 11.0152C45.429 11.0544 45.3439 11.1117 45.2722 11.1839L44.6091 10.5211L45.2683 11.184C45.1966 11.2559 45.1399 11.3412 45.1013 11.435C45.0627 11.5289 45.0431 11.6294 45.0435 11.7309V15.1562C45.0448 15.3614 45.1269 15.5578 45.272 15.7029C45.417 15.848 45.6134 15.9301 45.8186 15.9314H67.8804C68.069 15.9321 68.2514 15.8635 68.3929 15.7387L68.4268 15.7029C68.4991 15.6314 68.5565 15.5462 68.5958 15.4524C68.6351 15.3586 68.6555 15.2579 68.6558 15.1562V11.7304C68.6557 11.5404 68.586 11.357 68.4599 11.2148L68.4277 11.1836L68.4296 11.1817L68.4275 11.1797C68.2819 11.0357 68.0854 10.955 67.8807 10.9551L67.8804 10.9554Z" fill="white"/>
<path d="M41.3101 22.3776C41.0614 22.3776 40.823 22.4764 40.6471 22.6522C40.4713 22.828 40.3726 23.0665 40.3726 23.3151C40.3726 23.5638 40.4713 23.8022 40.6471 23.978C40.823 24.1539 41.0614 24.2526 41.3101 24.2526H70.3221C70.5707 24.2526 70.8092 24.1539 70.985 23.978C71.1608 23.8022 71.2596 23.5638 71.2596 23.3151C71.2596 23.0665 71.1608 22.828 70.985 22.6522C70.8092 22.4764 70.5707 22.3776 70.3221 22.3776H41.3101Z" fill="white"/>
<path d="M41.7129 27.8176C41.4642 27.8176 41.2258 27.9164 41.05 28.0922C40.8742 28.268 40.7754 28.5065 40.7754 28.7551C40.7754 29.0038 40.8742 29.2422 41.05 29.418C41.2258 29.5939 41.4642 29.6926 41.7129 29.6926H70.7249C70.9735 29.6926 71.212 29.5939 71.3878 29.418C71.5636 29.2422 71.6624 29.0038 71.6624 28.7551C71.6624 28.5065 71.5636 28.268 71.3878 28.0922C71.212 27.9164 70.9735 27.8176 70.7249 27.8176H41.7129Z" fill="white"/>
<path d="M42.1162 33.2573C41.8676 33.2573 41.6291 33.3561 41.4533 33.5319C41.2775 33.7077 41.1787 33.9462 41.1787 34.1948C41.1787 34.4435 41.2775 34.6819 41.4533 34.8577C41.6291 35.0336 41.8676 35.1323 42.1162 35.1323H71.1282C71.3769 35.1323 71.6153 35.0336 71.7911 34.8577C71.9669 34.6819 72.0657 34.4435 72.0657 34.1948C72.0657 33.9462 71.9669 33.7077 71.7911 33.5319C71.6153 33.3561 71.3769 33.2573 71.1282 33.2573H42.1162Z" fill="white"/>
<path d="M25.3593 37.2403C25.2631 37.3168 25.1829 37.4114 25.1233 37.5189C25.0637 37.6263 25.0259 37.7445 25.0119 37.8666C24.998 37.9886 25.0082 38.1123 25.042 38.2304C25.0759 38.3486 25.1326 38.4589 25.2091 38.5551C25.2856 38.6512 25.3802 38.7314 25.4877 38.791C25.5951 38.8507 25.7133 38.8885 25.8354 38.9025C25.9574 38.9164 26.0811 38.9062 26.1992 38.8724C26.3173 38.8385 26.4277 38.7818 26.5238 38.7053C31.9604 34.3887 45.5628 24.0919 45.6019 24.0623C45.7017 23.9889 45.7859 23.8964 45.8497 23.7902C45.9135 23.6839 45.9556 23.5661 45.9735 23.4435C45.9914 23.3209 45.9848 23.1959 45.954 23.0759C45.9233 22.9558 45.869 22.8431 45.7943 22.7442C45.7197 22.6453 45.6261 22.5622 45.5191 22.4998C45.4121 22.4373 45.2937 22.3967 45.1709 22.3803C45.048 22.364 44.9232 22.3722 44.8035 22.4044C44.6839 22.4367 44.5718 22.4924 44.4739 22.5683C44.4348 22.5978 30.8334 32.894 25.3593 37.2403Z" fill="white"/>
</g>
<defs>
<clipPath id="clip0_20_575">
<rect width="80" height="80" fill="white"/>
</clipPath>
</defs>
</svg>
